<svg xmlns="http://www.w3.org/2000/svg" xmlns:xlink="http://www.w3.org/1999/xlink" width="500" zoomAndPan="magnify" viewBox="0 0 375 374.999991" height="500" preserveAspectRatio="xMidYMid meet" version="1.0"><defs><g/><clipPath id="28d93550eb"><path d="M 119.308594 140 L 188 140 L 188 200.019531 L 119.308594 200.019531 Z M 119.308594 140 " clip-rule="nonzero"/></clipPath><clipPath id="e724d01a65"><path d="M 187 108.519531 L 255.808594 108.519531 L 255.808594 169 L 187 169 Z M 187 108.519531 " clip-rule="nonzero"/></clipPath></defs><rect x="-37.5" width="450" fill="#ffffff" y="-37.499999" height="449.999989" fill-opacity="1"/><rect x="-37.5" width="450" fill="#e8cfc1" y="-37.499999" height="449.999989" fill-opacity="1"/><g clip-path="url(#28d93550eb)"><path fill="#ce6857" d="M 165.230469 182.664062 L 165.230469 190.964844 L 127.636719 173.5 L 127.636719 166.765625 L 165.230469 149.296875 L 165.230469 157.601562 L 136.800781 170.054688 L 136.800781 170.210938 Z M 187.558594 140.074219 L 124.6875 140.074219 C 121.71875 140.074219 119.3125 142.480469 119.3125 145.449219 L 119.3125 194.816406 C 119.3125 197.785156 121.71875 200.191406 124.6875 200.191406 L 170.105469 200.191406 L 187.558594 140.074219 " fill-opacity="1" fill-rule="nonzero"/></g><g clip-path="url(#e724d01a65)"><path fill="#523e27" d="M 247.378906 142.210938 L 209.785156 159.441406 L 209.785156 151.136719 L 238.839844 138.683594 L 238.839844 138.527344 L 209.785156 126.074219 L 209.785156 117.773438 L 247.378906 135.003906 Z M 205.011719 108.546875 L 187.558594 168.664062 L 250.328125 168.664062 C 253.292969 168.664062 255.699219 166.257812 255.699219 163.289062 L 255.699219 113.921875 C 255.699219 110.953125 253.292969 108.546875 250.328125 108.546875 L 205.011719 108.546875 " fill-opacity="1" fill-rule="nonzero"/></g><g fill="#523e27" fill-opacity="1"><g transform="translate(104.573552, 237.534858)"><g><path d="M 0.84375 -19.59375 L 7.609375 -7.421875 L 7.609375 0 L 10.15625 0 L 10.15625 -7.671875 L 17.046875 -19.59375 L 15.546875 -19.59375 L 9.546875 -9.265625 L 9.4375 -9.265625 L 3.71875 -19.59375 Z M 0.84375 -19.59375 "/></g></g></g><g fill="#523e27" fill-opacity="1"><g transform="translate(121.343106, 237.534858)"><g><path d="M 14.671875 -6.390625 L 14.671875 -6.96875 C 14.671875 -8.21875 14.492188 -9.300781 14.140625 -10.21875 C 13.785156 -11.132812 13.300781 -11.890625 12.6875 -12.484375 C 12.082031 -13.085938 11.378906 -13.535156 10.578125 -13.828125 C 9.773438 -14.128906 8.925781 -14.28125 8.03125 -14.28125 C 7.082031 -14.28125 6.207031 -14.113281 5.40625 -13.78125 C 4.601562 -13.457031 3.898438 -12.984375 3.296875 -12.359375 C 2.703125 -11.734375 2.238281 -10.976562 1.90625 -10.09375 C 1.570312 -9.207031 1.40625 -8.203125 1.40625 -7.078125 C 1.40625 -6.148438 1.546875 -5.242188 1.828125 -4.359375 C 2.117188 -3.472656 2.554688 -2.675781 3.140625 -1.96875 C 3.734375 -1.269531 4.484375 -0.707031 5.390625 -0.28125 C 6.296875 0.132812 7.363281 0.34375 8.59375 0.34375 C 9.789062 0.34375 10.890625 0.132812 11.890625 -0.28125 C 12.898438 -0.707031 13.78125 -1.3125 14.53125 -2.09375 L 13.640625 -3 C 13.242188 -2.65625 12.875 -2.34375 12.53125 -2.0625 C 12.1875 -1.789062 11.835938 -1.5625 11.484375 -1.375 C 11.128906 -1.1875 10.757812 -1.039062 10.375 -0.9375 C 9.988281 -0.832031 9.5625 -0.78125 9.09375 -0.78125 C 8.570312 -0.78125 8.015625 -0.859375 7.421875 -1.015625 C 6.835938 -1.179688 6.296875 -1.46875 5.796875 -1.875 C 5.296875 -2.28125 4.875 -2.847656 4.53125 -3.578125 C 4.195312 -4.304688 4.03125 -5.242188 4.03125 -6.390625 Z M 4.03125 -7.5 C 4.03125 -8.25 4.109375 -8.972656 4.265625 -9.671875 C 4.429688 -10.367188 4.675781 -10.988281 5 -11.53125 C 5.320312 -12.070312 5.734375 -12.503906 6.234375 -12.828125 C 6.742188 -13.160156 7.34375 -13.328125 8.03125 -13.328125 C 9.363281 -13.328125 10.394531 -12.804688 11.125 -11.765625 C 11.863281 -10.734375 12.234375 -9.3125 12.234375 -7.5 Z M 4.03125 -7.5 "/></g></g></g><g fill="#523e27" fill-opacity="1"><g transform="translate(136.2929, 237.534858)"><g><path d="M 7.390625 -14.3125 C 8.753906 -14.3125 9.804688 -14.117188 10.546875 -13.734375 C 11.296875 -13.347656 11.84375 -12.847656 12.1875 -12.234375 C 12.539062 -11.617188 12.742188 -10.910156 12.796875 -10.109375 C 12.847656 -9.304688 12.875 -8.484375 12.875 -7.640625 L 12.875 0 L 10.609375 0 L 10.609375 -1.375 C 10.066406 -0.851562 9.375 -0.4375 8.53125 -0.125 C 7.695312 0.1875 6.859375 0.34375 6.015625 0.34375 C 5.210938 0.34375 4.503906 0.203125 3.890625 -0.078125 C 3.273438 -0.359375 2.757812 -0.722656 2.34375 -1.171875 C 1.9375 -1.617188 1.628906 -2.125 1.421875 -2.6875 C 1.222656 -3.25 1.125 -3.816406 1.125 -4.390625 C 1.125 -4.992188 1.234375 -5.59375 1.453125 -6.1875 C 1.679688 -6.78125 2.019531 -7.316406 2.46875 -7.796875 C 2.914062 -8.273438 3.460938 -8.660156 4.109375 -8.953125 C 4.765625 -9.253906 5.515625 -9.40625 6.359375 -9.40625 C 7.191406 -9.40625 7.988281 -9.238281 8.75 -8.90625 C 9.507812 -8.582031 10.128906 -8.125 10.609375 -7.53125 L 10.609375 -8.734375 C 10.609375 -10.265625 10.378906 -11.398438 9.921875 -12.140625 C 9.460938 -12.890625 8.628906 -13.265625 7.421875 -13.265625 C 6.898438 -13.265625 6.441406 -13.195312 6.046875 -13.0625 C 5.648438 -12.9375 5.296875 -12.757812 4.984375 -12.53125 C 4.679688 -12.300781 4.398438 -12.007812 4.140625 -11.65625 C 3.878906 -11.3125 3.617188 -10.925781 3.359375 -10.5 L 1.90625 -11.953125 C 2.164062 -12.234375 2.4375 -12.515625 2.71875 -12.796875 C 3.007812 -13.078125 3.363281 -13.328125 3.78125 -13.546875 C 4.207031 -13.773438 4.707031 -13.957031 5.28125 -14.09375 C 5.863281 -14.238281 6.566406 -14.3125 7.390625 -14.3125 Z M 10.609375 -5.546875 C 10.515625 -5.765625 10.378906 -6.023438 10.203125 -6.328125 C 10.023438 -6.628906 9.796875 -6.914062 9.515625 -7.1875 C 9.234375 -7.46875 8.894531 -7.707031 8.5 -7.90625 C 8.113281 -8.101562 7.648438 -8.203125 7.109375 -8.203125 C 6.566406 -8.203125 6.070312 -8.09375 5.625 -7.875 C 5.175781 -7.664062 4.796875 -7.390625 4.484375 -7.046875 C 4.179688 -6.703125 3.945312 -6.296875 3.78125 -5.828125 C 3.613281 -5.359375 3.53125 -4.875 3.53125 -4.375 C 3.53125 -3.769531 3.632812 -3.25 3.84375 -2.8125 C 4.0625 -2.375 4.335938 -2 4.671875 -1.6875 C 5.015625 -1.382812 5.390625 -1.15625 5.796875 -1 C 6.203125 -0.851562 6.59375 -0.78125 6.96875 -0.78125 C 7.320312 -0.78125 7.679688 -0.84375 8.046875 -0.96875 C 8.410156 -1.101562 8.753906 -1.285156 9.078125 -1.515625 C 9.410156 -1.753906 9.707031 -2.03125 9.96875 -2.34375 C 10.226562 -2.664062 10.441406 -3.015625 10.609375 -3.390625 Z M 10.609375 -5.546875 "/></g></g></g><g fill="#523e27" fill-opacity="1"><g transform="translate(150.290831, 237.534858)"><g><path d="M 11.171875 -10.8125 C 11.171875 -11.3125 11.039062 -11.773438 10.78125 -12.203125 C 10.519531 -12.640625 10.160156 -13.007812 9.703125 -13.3125 C 9.242188 -13.625 8.710938 -13.867188 8.109375 -14.046875 C 7.503906 -14.222656 6.851562 -14.3125 6.15625 -14.3125 C 5.507812 -14.3125 4.898438 -14.222656 4.328125 -14.046875 C 3.753906 -13.878906 3.257812 -13.628906 2.84375 -13.296875 C 2.425781 -12.960938 2.09375 -12.546875 1.84375 -12.046875 C 1.601562 -11.554688 1.484375 -10.984375 1.484375 -10.328125 C 1.484375 -9.429688 1.6875 -8.722656 2.09375 -8.203125 C 2.507812 -7.679688 3.023438 -7.257812 3.640625 -6.9375 C 4.253906 -6.625 4.921875 -6.367188 5.640625 -6.171875 C 6.359375 -5.972656 7.023438 -5.757812 7.640625 -5.53125 C 8.253906 -5.300781 8.765625 -5.003906 9.171875 -4.640625 C 9.585938 -4.285156 9.796875 -3.800781 9.796875 -3.1875 C 9.796875 -2.925781 9.753906 -2.65625 9.671875 -2.375 C 9.585938 -2.09375 9.429688 -1.835938 9.203125 -1.609375 C 8.984375 -1.378906 8.675781 -1.179688 8.28125 -1.015625 C 7.894531 -0.859375 7.398438 -0.78125 6.796875 -0.78125 C 6.054688 -0.78125 5.425781 -0.894531 4.90625 -1.125 C 4.394531 -1.363281 3.972656 -1.644531 3.640625 -1.96875 C 3.316406 -2.300781 3.085938 -2.632812 2.953125 -2.96875 C 2.816406 -3.300781 2.75 -3.582031 2.75 -3.8125 L 0.921875 -3.8125 C 0.921875 -3.289062 1.039062 -2.78125 1.28125 -2.28125 C 1.53125 -1.789062 1.898438 -1.347656 2.390625 -0.953125 C 2.890625 -0.554688 3.5 -0.238281 4.21875 0 C 4.9375 0.226562 5.769531 0.34375 6.71875 0.34375 C 8.4375 0.34375 9.726562 -0.0351562 10.59375 -0.796875 C 11.46875 -1.554688 11.90625 -2.550781 11.90625 -3.78125 C 11.90625 -4.675781 11.691406 -5.394531 11.265625 -5.9375 C 10.847656 -6.476562 10.320312 -6.910156 9.6875 -7.234375 C 9.050781 -7.566406 8.363281 -7.832031 7.625 -8.03125 C 6.894531 -8.238281 6.210938 -8.453125 5.578125 -8.671875 C 4.941406 -8.898438 4.410156 -9.171875 3.984375 -9.484375 C 3.566406 -9.804688 3.359375 -10.257812 3.359375 -10.84375 C 3.359375 -11.082031 3.40625 -11.335938 3.5 -11.609375 C 3.59375 -11.878906 3.75 -12.128906 3.96875 -12.359375 C 4.195312 -12.597656 4.5 -12.796875 4.875 -12.953125 C 5.25 -13.109375 5.710938 -13.1875 6.265625 -13.1875 C 6.828125 -13.1875 7.3125 -13.109375 7.71875 -12.953125 C 8.132812 -12.796875 8.484375 -12.597656 8.765625 -12.359375 C 9.046875 -12.128906 9.25 -11.875 9.375 -11.59375 C 9.507812 -11.3125 9.578125 -11.050781 9.578125 -10.8125 Z M 11.171875 -10.8125 "/></g></g></g><g fill="#523e27" fill-opacity="1"><g transform="translate(162.608988, 237.534858)"><g><path d="M 3.140625 -14 L 3.140625 0 L 5.515625 0 L 5.515625 -14 Z M 2.796875 -18.421875 C 2.796875 -18.015625 2.945312 -17.660156 3.25 -17.359375 C 3.550781 -17.054688 3.90625 -16.90625 4.3125 -16.90625 C 4.71875 -16.90625 5.070312 -17.054688 5.375 -17.359375 C 5.675781 -17.660156 5.828125 -18.015625 5.828125 -18.421875 C 5.828125 -18.835938 5.675781 -19.191406 5.375 -19.484375 C 5.070312 -19.785156 4.71875 -19.9375 4.3125 -19.9375 C 3.90625 -19.9375 3.550781 -19.785156 3.25 -19.484375 C 2.945312 -19.191406 2.796875 -18.835938 2.796875 -18.421875 Z M 2.796875 -18.421875 "/></g></g></g><g fill="#523e27" fill-opacity="1"><g transform="translate(170.111803, 237.534858)"><g><path d="M 13.9375 0 L 13.9375 -9.078125 C 13.9375 -9.410156 13.910156 -9.867188 13.859375 -10.453125 C 13.804688 -11.046875 13.625 -11.625 13.3125 -12.1875 C 13.007812 -12.757812 12.519531 -13.253906 11.84375 -13.671875 C 11.175781 -14.097656 10.222656 -14.3125 8.984375 -14.3125 C 8.441406 -14.332031 7.832031 -14.222656 7.15625 -13.984375 C 6.488281 -13.753906 5.832031 -13.3125 5.1875 -12.65625 L 4.734375 -12.203125 L 4.625 -12.203125 L 4.625 -14 L 2.234375 -14 L 2.234375 0 L 4.625 0 L 4.625 -8.65625 C 4.625 -9.382812 4.722656 -10.007812 4.921875 -10.53125 C 5.128906 -11.050781 5.410156 -11.488281 5.765625 -11.84375 C 6.117188 -12.195312 6.523438 -12.457031 6.984375 -12.625 C 7.441406 -12.789062 7.914062 -12.875 8.40625 -12.875 C 9.1875 -12.875 9.789062 -12.71875 10.21875 -12.40625 C 10.644531 -12.101562 10.957031 -11.742188 11.15625 -11.328125 C 11.351562 -10.921875 11.46875 -10.507812 11.5 -10.09375 C 11.539062 -9.6875 11.5625 -9.394531 11.5625 -9.21875 L 11.5625 0 Z M 13.9375 0 "/></g></g></g><g fill="#523e27" fill-opacity="1"><g transform="translate(185.257576, 237.534858)"><g/></g></g><g fill="#523e27" fill-opacity="1"><g transform="translate(193.936225, 237.534858)"><g><path d="M 14.25 -5.765625 L 16.9375 0 L 19.65625 0 L 10.53125 -19.59375 L 9.125 -19.59375 L 0.84375 0 L 2.125 0 L 4.59375 -5.765625 Z M 13.65625 -7.03125 L 5.125 -7.03125 L 9.15625 -16.46875 L 9.265625 -16.46875 Z M 13.65625 -7.03125 "/></g></g></g><g fill="#523e27" fill-opacity="1"><g transform="translate(213.309424, 237.534858)"><g><path d="M 2.234375 -14 L 2.234375 0 L 4.625 0 L 4.625 -8.453125 C 4.625 -9.222656 4.710938 -9.875 4.890625 -10.40625 C 5.066406 -10.9375 5.289062 -11.367188 5.5625 -11.703125 C 5.84375 -12.035156 6.148438 -12.273438 6.484375 -12.421875 C 6.828125 -12.578125 7.15625 -12.65625 7.46875 -12.65625 C 7.90625 -12.65625 8.304688 -12.515625 8.671875 -12.234375 C 9.035156 -11.953125 9.300781 -11.691406 9.46875 -11.453125 L 10.421875 -13.1875 C 10.242188 -13.414062 10.039062 -13.601562 9.8125 -13.75 C 9.582031 -13.894531 9.347656 -14.007812 9.109375 -14.09375 C 8.878906 -14.175781 8.664062 -14.234375 8.46875 -14.265625 C 8.269531 -14.296875 8.125 -14.3125 8.03125 -14.3125 C 7.25 -14.3125 6.597656 -14.09375 6.078125 -13.65625 C 5.554688 -13.226562 5.125 -12.597656 4.78125 -11.765625 L 4.625 -11.765625 L 4.625 -14 Z M 2.234375 -14 "/></g></g></g><g fill="#523e27" fill-opacity="1"><g transform="translate(222.883951, 237.534858)"><g><path d="M 7.390625 -14.3125 C 8.753906 -14.3125 9.804688 -14.117188 10.546875 -13.734375 C 11.296875 -13.347656 11.84375 -12.847656 12.1875 -12.234375 C 12.539062 -11.617188 12.742188 -10.910156 12.796875 -10.109375 C 12.847656 -9.304688 12.875 -8.484375 12.875 -7.640625 L 12.875 0 L 10.609375 0 L 10.609375 -1.375 C 10.066406 -0.851562 9.375 -0.4375 8.53125 -0.125 C 7.695312 0.1875 6.859375 0.34375 6.015625 0.34375 C 5.210938 0.34375 4.503906 0.203125 3.890625 -0.078125 C 3.273438 -0.359375 2.757812 -0.722656 2.34375 -1.171875 C 1.9375 -1.617188 1.628906 -2.125 1.421875 -2.6875 C 1.222656 -3.25 1.125 -3.816406 1.125 -4.390625 C 1.125 -4.992188 1.234375 -5.59375 1.453125 -6.1875 C 1.679688 -6.78125 2.019531 -7.316406 2.46875 -7.796875 C 2.914062 -8.273438 3.460938 -8.660156 4.109375 -8.953125 C 4.765625 -9.253906 5.515625 -9.40625 6.359375 -9.40625 C 7.191406 -9.40625 7.988281 -9.238281 8.75 -8.90625 C 9.507812 -8.582031 10.128906 -8.125 10.609375 -7.53125 L 10.609375 -8.734375 C 10.609375 -10.265625 10.378906 -11.398438 9.921875 -12.140625 C 9.460938 -12.890625 8.628906 -13.265625 7.421875 -13.265625 C 6.898438 -13.265625 6.441406 -13.195312 6.046875 -13.0625 C 5.648438 -12.9375 5.296875 -12.757812 4.984375 -12.53125 C 4.679688 -12.300781 4.398438 -12.007812 4.140625 -11.65625 C 3.878906 -11.3125 3.617188 -10.925781 3.359375 -10.5 L 1.90625 -11.953125 C 2.164062 -12.234375 2.4375 -12.515625 2.71875 -12.796875 C 3.007812 -13.078125 3.363281 -13.328125 3.78125 -13.546875 C 4.207031 -13.773438 4.707031 -13.957031 5.28125 -14.09375 C 5.863281 -14.238281 6.566406 -14.3125 7.390625 -14.3125 Z M 10.609375 -5.546875 C 10.515625 -5.765625 10.378906 -6.023438 10.203125 -6.328125 C 10.023438 -6.628906 9.796875 -6.914062 9.515625 -7.1875 C 9.234375 -7.46875 8.894531 -7.707031 8.5 -7.90625 C 8.113281 -8.101562 7.648438 -8.203125 7.109375 -8.203125 C 6.566406 -8.203125 6.070312 -8.09375 5.625 -7.875 C 5.175781 -7.664062 4.796875 -7.390625 4.484375 -7.046875 C 4.179688 -6.703125 3.945312 -6.296875 3.78125 -5.828125 C 3.613281 -5.359375 3.53125 -4.875 3.53125 -4.375 C 3.53125 -3.769531 3.632812 -3.25 3.84375 -2.8125 C 4.0625 -2.375 4.335938 -2 4.671875 -1.6875 C 5.015625 -1.382812 5.390625 -1.15625 5.796875 -1 C 6.203125 -0.851562 6.59375 -0.78125 6.96875 -0.78125 C 7.320312 -0.78125 7.679688 -0.84375 8.046875 -0.96875 C 8.410156 -1.101562 8.753906 -1.285156 9.078125 -1.515625 C 9.410156 -1.753906 9.707031 -2.03125 9.96875 -2.34375 C 10.226562 -2.664062 10.441406 -3.015625 10.609375 -3.390625 Z M 10.609375 -5.546875 "/></g></g></g><g fill="#523e27" fill-opacity="1"><g transform="translate(236.881883, 237.534858)"><g><path d="M 0.84375 -14 L 0.84375 -12.875 L 3.28125 -12.875 L 3.28125 0 L 5.65625 0 L 5.65625 -12.875 L 9.046875 -12.875 L 9.046875 -14 L 5.65625 -14 L 5.65625 -16.359375 C 5.65625 -16.578125 5.664062 -16.835938 5.6875 -17.140625 C 5.707031 -17.453125 5.757812 -17.742188 5.84375 -18.015625 C 5.9375 -18.285156 6.082031 -18.515625 6.28125 -18.703125 C 6.476562 -18.890625 6.753906 -18.984375 7.109375 -18.984375 C 7.554688 -18.984375 7.925781 -18.796875 8.21875 -18.421875 C 8.507812 -18.046875 8.75 -17.664062 8.9375 -17.28125 L 10.15625 -18.59375 C 9.707031 -19.039062 9.242188 -19.375 8.765625 -19.59375 C 8.296875 -19.820312 7.765625 -19.9375 7.171875 -19.9375 C 6.679688 -19.9375 6.203125 -19.851562 5.734375 -19.6875 C 5.273438 -19.519531 4.863281 -19.257812 4.5 -18.90625 C 4.132812 -18.5625 3.835938 -18.117188 3.609375 -17.578125 C 3.390625 -17.035156 3.28125 -16.40625 3.28125 -15.6875 L 3.28125 -14 Z M 0.84375 -14 "/></g></g></g><g fill="#523e27" fill-opacity="1"><g transform="translate(245.924488, 237.534858)"><g><path d="M 7.390625 -14.3125 C 8.753906 -14.3125 9.804688 -14.117188 10.546875 -13.734375 C 11.296875 -13.347656 11.84375 -12.847656 12.1875 -12.234375 C 12.539062 -11.617188 12.742188 -10.910156 12.796875 -10.109375 C 12.847656 -9.304688 12.875 -8.484375 12.875 -7.640625 L 12.875 0 L 10.609375 0 L 10.609375 -1.375 C 10.066406 -0.851562 9.375 -0.4375 8.53125 -0.125 C 7.695312 0.1875 6.859375 0.34375 6.015625 0.34375 C 5.210938 0.34375 4.503906 0.203125 3.890625 -0.078125 C 3.273438 -0.359375 2.757812 -0.722656 2.34375 -1.171875 C 1.9375 -1.617188 1.628906 -2.125 1.421875 -2.6875 C 1.222656 -3.25 1.125 -3.816406 1.125 -4.390625 C 1.125 -4.992188 1.234375 -5.59375 1.453125 -6.1875 C 1.679688 -6.78125 2.019531 -7.316406 2.46875 -7.796875 C 2.914062 -8.273438 3.460938 -8.660156 4.109375 -8.953125 C 4.765625 -9.253906 5.515625 -9.40625 6.359375 -9.40625 C 7.191406 -9.40625 7.988281 -9.238281 8.75 -8.90625 C 9.507812 -8.582031 10.128906 -8.125 10.609375 -7.53125 L 10.609375 -8.734375 C 10.609375 -10.265625 10.378906 -11.398438 9.921875 -12.140625 C 9.460938 -12.890625 8.628906 -13.265625 7.421875 -13.265625 C 6.898438 -13.265625 6.441406 -13.195312 6.046875 -13.0625 C 5.648438 -12.9375 5.296875 -12.757812 4.984375 -12.53125 C 4.679688 -12.300781 4.398438 -12.007812 4.140625 -11.65625 C 3.878906 -11.3125 3.617188 -10.925781 3.359375 -10.5 L 1.90625 -11.953125 C 2.164062 -12.234375 2.4375 -12.515625 2.71875 -12.796875 C 3.007812 -13.078125 3.363281 -13.328125 3.78125 -13.546875 C 4.207031 -13.773438 4.707031 -13.957031 5.28125 -14.09375 C 5.863281 -14.238281 6.566406 -14.3125 7.390625 -14.3125 Z M 10.609375 -5.546875 C 10.515625 -5.765625 10.378906 -6.023438 10.203125 -6.328125 C 10.023438 -6.628906 9.796875 -6.914062 9.515625 -7.1875 C 9.234375 -7.46875 8.894531 -7.707031 8.5 -7.90625 C 8.113281 -8.101562 7.648438 -8.203125 7.109375 -8.203125 C 6.566406 -8.203125 6.070312 -8.09375 5.625 -7.875 C 5.175781 -7.664062 4.796875 -7.390625 4.484375 -7.046875 C 4.179688 -6.703125 3.945312 -6.296875 3.78125 -5.828125 C 3.613281 -5.359375 3.53125 -4.875 3.53125 -4.375 C 3.53125 -3.769531 3.632812 -3.25 3.84375 -2.8125 C 4.0625 -2.375 4.335938 -2 4.671875 -1.6875 C 5.015625 -1.382812 5.390625 -1.15625 5.796875 -1 C 6.203125 -0.851562 6.59375 -0.78125 6.96875 -0.78125 C 7.320312 -0.78125 7.679688 -0.84375 8.046875 -0.96875 C 8.410156 -1.101562 8.753906 -1.285156 9.078125 -1.515625 C 9.410156 -1.753906 9.707031 -2.03125 9.96875 -2.34375 C 10.226562 -2.664062 10.441406 -3.015625 10.609375 -3.390625 Z M 10.609375 -5.546875 "/></g></g></g><g fill="#523e27" fill-opacity="1"><g transform="translate(259.92242, 237.534858)"><g><path d="M 0.84375 -12.875 L 0.84375 -14 L 3.28125 -14 L 3.28125 -18.3125 L 5.65625 -18.3125 L 5.65625 -14 L 9.046875 -14 L 9.046875 -12.875 L 5.65625 -12.875 L 5.65625 -3.578125 C 5.65625 -3.359375 5.664062 -3.101562 5.6875 -2.8125 C 5.707031 -2.519531 5.757812 -2.25 5.84375 -2 C 5.9375 -1.75 6.082031 -1.539062 6.28125 -1.375 C 6.476562 -1.207031 6.753906 -1.125 7.109375 -1.125 C 7.554688 -1.125 7.929688 -1.289062 8.234375 -1.625 C 8.535156 -1.957031 8.773438 -2.320312 8.953125 -2.71875 L 10.28125 -1.375 C 9.363281 -0.457031 8.328125 0 7.171875 0 C 6.679688 0 6.203125 -0.0820312 5.734375 -0.25 C 5.273438 -0.414062 4.863281 -0.671875 4.5 -1.015625 C 4.132812 -1.367188 3.835938 -1.8125 3.609375 -2.34375 C 3.390625 -2.882812 3.28125 -3.519531 3.28125 -4.25 L 3.28125 -12.875 Z M 0.84375 -12.875 "/></g></g></g><g fill="#523e27" fill-opacity="1"><g transform="translate(136.632594, 263.17888)"><g><path d="M 0.703125 0 L 0.703125 -0.125 C 0.765625 -0.125 0.820312 -0.144531 0.875 -0.1875 C 0.925781 -0.238281 0.96875 -0.296875 1 -0.359375 C 1.03125 -0.421875 1.050781 -0.488281 1.0625 -0.5625 C 1.082031 -0.644531 1.09375 -0.71875 1.09375 -0.78125 L 1.09375 -4.109375 C 1.09375 -4.242188 1.070312 -4.375 1.03125 -4.5 C 0.988281 -4.625 0.875 -4.6875 0.6875 -4.6875 L 0.6875 -4.796875 L 1.890625 -5.1875 L 1.890625 -0.78125 C 1.890625 -0.71875 1.894531 -0.644531 1.90625 -0.5625 C 1.925781 -0.488281 1.953125 -0.421875 1.984375 -0.359375 C 2.015625 -0.296875 2.050781 -0.238281 2.09375 -0.1875 C 2.144531 -0.144531 2.203125 -0.125 2.265625 -0.125 L 2.265625 0 Z M 0.765625 -6.34375 C 0.765625 -6.5 0.816406 -6.628906 0.921875 -6.734375 C 1.035156 -6.847656 1.171875 -6.90625 1.328125 -6.90625 C 1.492188 -6.90625 1.628906 -6.847656 1.734375 -6.734375 C 1.847656 -6.628906 1.90625 -6.5 1.90625 -6.34375 C 1.90625 -6.175781 1.847656 -6.039062 1.734375 -5.9375 C 1.628906 -5.832031 1.492188 -5.78125 1.328125 -5.78125 C 1.171875 -5.78125 1.035156 -5.832031 0.921875 -5.9375 C 0.816406 -6.039062 0.765625 -6.175781 0.765625 -6.34375 Z M 0.765625 -6.34375 "/></g></g></g><g fill="#523e27" fill-opacity="1"><g transform="translate(139.644599, 263.17888)"><g><path d="M 5.359375 -0.78125 C 5.359375 -0.71875 5.363281 -0.644531 5.375 -0.5625 C 5.394531 -0.488281 5.421875 -0.421875 5.453125 -0.359375 C 5.492188 -0.296875 5.535156 -0.238281 5.578125 -0.1875 C 5.628906 -0.144531 5.6875 -0.125 5.75 -0.125 L 5.75 0 L 4.203125 0 L 4.203125 -0.125 C 4.253906 -0.125 4.300781 -0.144531 4.34375 -0.1875 C 4.394531 -0.238281 4.4375 -0.296875 4.46875 -0.359375 C 4.507812 -0.421875 4.535156 -0.488281 4.546875 -0.5625 C 4.566406 -0.644531 4.578125 -0.71875 4.578125 -0.78125 L 4.578125 -3.015625 C 4.578125 -3.296875 4.535156 -3.546875 4.453125 -3.765625 C 4.378906 -3.984375 4.273438 -4.164062 4.140625 -4.3125 C 4.003906 -4.457031 3.847656 -4.5625 3.671875 -4.625 C 3.503906 -4.695312 3.332031 -4.734375 3.15625 -4.734375 C 2.976562 -4.734375 2.800781 -4.695312 2.625 -4.625 C 2.457031 -4.550781 2.304688 -4.453125 2.171875 -4.328125 C 2.046875 -4.210938 1.941406 -4.078125 1.859375 -3.921875 C 1.773438 -3.773438 1.734375 -3.613281 1.734375 -3.4375 L 1.734375 -0.78125 C 1.734375 -0.71875 1.738281 -0.644531 1.75 -0.5625 C 1.769531 -0.488281 1.796875 -0.421875 1.828125 -0.359375 C 1.867188 -0.296875 1.910156 -0.238281 1.953125 -0.1875 C 1.992188 -0.144531 2.046875 -0.125 2.109375 -0.125 L 2.109375 0 L 0.546875 0 L 0.546875 -0.125 C 0.609375 -0.125 0.660156 -0.144531 0.703125 -0.1875 C 0.753906 -0.238281 0.796875 -0.296875 0.828125 -0.359375 C 0.867188 -0.421875 0.894531 -0.488281 0.90625 -0.5625 C 0.925781 -0.644531 0.9375 -0.71875 0.9375 -0.78125 L 0.9375 -4.09375 C 0.9375 -4.226562 0.914062 -4.359375 0.875 -4.484375 C 0.832031 -4.609375 0.71875 -4.675781 0.53125 -4.6875 L 0.53125 -4.78125 L 1.734375 -5.171875 L 1.734375 -4.515625 C 1.785156 -4.578125 1.851562 -4.644531 1.9375 -4.71875 C 2.03125 -4.800781 2.140625 -4.875 2.265625 -4.9375 C 2.390625 -5.007812 2.53125 -5.066406 2.6875 -5.109375 C 2.851562 -5.148438 3.050781 -5.171875 3.28125 -5.171875 C 3.65625 -5.171875 3.972656 -5.101562 4.234375 -4.96875 C 4.492188 -4.84375 4.707031 -4.675781 4.875 -4.46875 C 5.050781 -4.269531 5.175781 -4.046875 5.25 -3.796875 C 5.320312 -3.554688 5.359375 -3.320312 5.359375 -3.09375 Z M 5.359375 -0.78125 "/></g></g></g><g fill="#523e27" fill-opacity="1"><g transform="translate(146.028616, 263.17888)"><g><path d="M 5.390625 -5.046875 L 5.390625 -4.921875 C 5.328125 -4.921875 5.269531 -4.898438 5.21875 -4.859375 C 5.164062 -4.816406 5.113281 -4.765625 5.0625 -4.703125 C 5.007812 -4.640625 4.957031 -4.566406 4.90625 -4.484375 C 4.863281 -4.410156 4.828125 -4.34375 4.796875 -4.28125 L 2.734375 0.203125 L 0.6875 -4.328125 C 0.625 -4.460938 0.550781 -4.59375 0.46875 -4.71875 C 0.382812 -4.851562 0.269531 -4.921875 0.125 -4.921875 L 0.125 -5.046875 L 1.78125 -5.046875 L 1.78125 -4.921875 C 1.726562 -4.921875 1.660156 -4.894531 1.578125 -4.84375 C 1.503906 -4.800781 1.46875 -4.734375 1.46875 -4.640625 C 1.46875 -4.597656 1.503906 -4.507812 1.578125 -4.375 L 2.953125 -1.265625 L 4.4375 -4.5 C 4.46875 -4.582031 4.484375 -4.644531 4.484375 -4.6875 C 4.484375 -4.75 4.445312 -4.800781 4.375 -4.84375 C 4.3125 -4.894531 4.257812 -4.921875 4.21875 -4.921875 L 4.21875 -5.046875 Z M 5.390625 -5.046875 "/></g></g></g><g fill="#523e27" fill-opacity="1"><g transform="translate(151.620623, 263.17888)"><g><path d="M 3.703125 0 L 3.703125 -0.609375 L 3.640625 -0.546875 C 3.441406 -0.347656 3.210938 -0.191406 2.953125 -0.078125 C 2.691406 0.0234375 2.378906 0.078125 2.015625 0.078125 C 1.734375 0.078125 1.492188 0.046875 1.296875 -0.015625 C 1.097656 -0.078125 0.929688 -0.164062 0.796875 -0.28125 C 0.671875 -0.394531 0.578125 -0.523438 0.515625 -0.671875 C 0.460938 -0.828125 0.4375 -0.988281 0.4375 -1.15625 C 0.4375 -1.4375 0.507812 -1.679688 0.65625 -1.890625 C 0.800781 -2.097656 1.015625 -2.28125 1.296875 -2.4375 C 1.578125 -2.59375 1.914062 -2.738281 2.3125 -2.875 C 2.71875 -3.007812 3.179688 -3.140625 3.703125 -3.265625 C 3.691406 -3.578125 3.628906 -3.828125 3.515625 -4.015625 C 3.398438 -4.210938 3.265625 -4.363281 3.109375 -4.46875 C 2.960938 -4.570312 2.804688 -4.640625 2.640625 -4.671875 C 2.472656 -4.710938 2.328125 -4.734375 2.203125 -4.734375 C 1.992188 -4.734375 1.8125 -4.703125 1.65625 -4.640625 C 1.5 -4.578125 1.363281 -4.492188 1.25 -4.390625 C 1.132812 -4.296875 1.035156 -4.191406 0.953125 -4.078125 C 0.878906 -3.960938 0.816406 -3.851562 0.765625 -3.75 L 0.65625 -3.75 L 0.65625 -4.625 C 0.71875 -4.625 0.773438 -4.640625 0.828125 -4.671875 C 0.890625 -4.710938 0.960938 -4.75 1.046875 -4.78125 C 1.160156 -4.820312 1.320312 -4.890625 1.53125 -4.984375 C 1.738281 -5.078125 2.03125 -5.125 2.40625 -5.125 C 2.851562 -5.125 3.210938 -5.066406 3.484375 -4.953125 C 3.753906 -4.835938 3.960938 -4.6875 4.109375 -4.5 C 4.253906 -4.320312 4.347656 -4.113281 4.390625 -3.875 C 4.441406 -3.644531 4.46875 -3.40625 4.46875 -3.15625 L 4.46875 -0.78125 C 4.46875 -0.625 4.503906 -0.472656 4.578125 -0.328125 C 4.648438 -0.191406 4.75 -0.125 4.875 -0.125 L 4.875 0 Z M 3.703125 -1.140625 L 3.703125 -2.859375 L 3.59375 -2.828125 C 3.394531 -2.785156 3.15625 -2.722656 2.875 -2.640625 C 2.601562 -2.554688 2.34375 -2.453125 2.09375 -2.328125 C 1.851562 -2.203125 1.644531 -2.050781 1.46875 -1.875 C 1.289062 -1.695312 1.203125 -1.492188 1.203125 -1.265625 C 1.203125 -1.003906 1.304688 -0.789062 1.515625 -0.625 C 1.722656 -0.457031 1.992188 -0.375 2.328125 -0.375 C 2.585938 -0.375 2.816406 -0.429688 3.015625 -0.546875 C 3.222656 -0.660156 3.410156 -0.8125 3.578125 -1 Z M 3.703125 -1.140625 "/></g></g></g><g fill="#523e27" fill-opacity="1"><g transform="translate(157.104631, 263.17888)"><g><path d="M 1.71875 -4.625 L 1.71875 -1.734375 C 1.71875 -1.523438 1.71875 -1.335938 1.71875 -1.171875 C 1.726562 -1.003906 1.75 -0.863281 1.78125 -0.75 C 1.820312 -0.644531 1.875 -0.5625 1.9375 -0.5 C 2 -0.4375 2.085938 -0.40625 2.203125 -0.40625 C 2.367188 -0.40625 2.523438 -0.484375 2.671875 -0.640625 C 2.816406 -0.804688 2.910156 -1 2.953125 -1.21875 L 3.0625 -1.21875 L 3.0625 -0.34375 C 2.988281 -0.34375 2.925781 -0.320312 2.875 -0.28125 C 2.8125 -0.21875 2.722656 -0.15625 2.609375 -0.09375 C 2.492188 -0.03125 2.320312 0 2.09375 0 C 1.800781 0 1.570312 -0.0546875 1.40625 -0.171875 C 1.25 -0.285156 1.132812 -0.429688 1.0625 -0.609375 C 0.988281 -0.796875 0.945312 -1 0.9375 -1.21875 C 0.925781 -1.445312 0.921875 -1.675781 0.921875 -1.90625 L 0.921875 -4.625 L 0.25 -4.625 L 0.25 -5.046875 L 0.921875 -5.046875 L 0.921875 -6.109375 C 0.921875 -6.242188 0.898438 -6.367188 0.859375 -6.484375 C 0.828125 -6.597656 0.710938 -6.660156 0.515625 -6.671875 L 0.515625 -6.796875 L 1.71875 -7.171875 L 1.71875 -5.046875 L 3.0625 -5.046875 L 3.0625 -4.625 Z M 1.71875 -4.625 "/></g></g></g><g fill="#523e27" fill-opacity="1"><g transform="translate(160.52464, 263.17888)"><g><path d="M 0.703125 0 L 0.703125 -0.125 C 0.765625 -0.125 0.820312 -0.144531 0.875 -0.1875 C 0.925781 -0.238281 0.96875 -0.296875 1 -0.359375 C 1.03125 -0.421875 1.050781 -0.488281 1.0625 -0.5625 C 1.082031 -0.644531 1.09375 -0.71875 1.09375 -0.78125 L 1.09375 -4.109375 C 1.09375 -4.242188 1.070312 -4.375 1.03125 -4.5 C 0.988281 -4.625 0.875 -4.6875 0.6875 -4.6875 L 0.6875 -4.796875 L 1.890625 -5.1875 L 1.890625 -0.78125 C 1.890625 -0.71875 1.894531 -0.644531 1.90625 -0.5625 C 1.925781 -0.488281 1.953125 -0.421875 1.984375 -0.359375 C 2.015625 -0.296875 2.050781 -0.238281 2.09375 -0.1875 C 2.144531 -0.144531 2.203125 -0.125 2.265625 -0.125 L 2.265625 0 Z M 0.765625 -6.34375 C 0.765625 -6.5 0.816406 -6.628906 0.921875 -6.734375 C 1.035156 -6.847656 1.171875 -6.90625 1.328125 -6.90625 C 1.492188 -6.90625 1.628906 -6.847656 1.734375 -6.734375 C 1.847656 -6.628906 1.90625 -6.5 1.90625 -6.34375 C 1.90625 -6.175781 1.847656 -6.039062 1.734375 -5.9375 C 1.628906 -5.832031 1.492188 -5.78125 1.328125 -5.78125 C 1.171875 -5.78125 1.035156 -5.832031 0.921875 -5.9375 C 0.816406 -6.039062 0.765625 -6.175781 0.765625 -6.34375 Z M 0.765625 -6.34375 "/></g></g></g><g fill="#523e27" fill-opacity="1"><g transform="translate(163.536645, 263.17888)"><g><path d="M 3.0625 0.078125 C 2.65625 0.078125 2.289062 0.015625 1.96875 -0.109375 C 1.65625 -0.242188 1.382812 -0.425781 1.15625 -0.65625 C 0.925781 -0.882812 0.75 -1.15625 0.625 -1.46875 C 0.5 -1.78125 0.4375 -2.117188 0.4375 -2.484375 C 0.4375 -2.878906 0.503906 -3.238281 0.640625 -3.5625 C 0.785156 -3.882812 0.976562 -4.160156 1.21875 -4.390625 C 1.457031 -4.617188 1.738281 -4.796875 2.0625 -4.921875 C 2.394531 -5.054688 2.75 -5.125 3.125 -5.125 C 3.507812 -5.125 3.863281 -5.0625 4.1875 -4.9375 C 4.507812 -4.8125 4.785156 -4.632812 5.015625 -4.40625 C 5.242188 -4.1875 5.421875 -3.921875 5.546875 -3.609375 C 5.679688 -3.304688 5.75 -2.972656 5.75 -2.609375 C 5.75 -2.265625 5.691406 -1.925781 5.578125 -1.59375 C 5.460938 -1.269531 5.289062 -0.984375 5.0625 -0.734375 C 4.832031 -0.492188 4.550781 -0.296875 4.21875 -0.140625 C 3.882812 0.00390625 3.5 0.078125 3.0625 0.078125 Z M 2.984375 -4.734375 C 2.703125 -4.710938 2.445312 -4.640625 2.21875 -4.515625 C 2 -4.390625 1.816406 -4.226562 1.671875 -4.03125 C 1.523438 -3.84375 1.410156 -3.625 1.328125 -3.375 C 1.253906 -3.125 1.21875 -2.867188 1.21875 -2.609375 C 1.21875 -2.316406 1.265625 -2.03125 1.359375 -1.75 C 1.453125 -1.476562 1.582031 -1.234375 1.75 -1.015625 C 1.925781 -0.804688 2.132812 -0.632812 2.375 -0.5 C 2.613281 -0.375 2.882812 -0.3125 3.1875 -0.3125 C 3.476562 -0.3125 3.738281 -0.375 3.96875 -0.5 C 4.195312 -0.632812 4.382812 -0.800781 4.53125 -1 C 4.6875 -1.207031 4.800781 -1.4375 4.875 -1.6875 C 4.945312 -1.945312 4.984375 -2.203125 4.984375 -2.453125 C 4.984375 -2.722656 4.941406 -2.988281 4.859375 -3.25 C 4.785156 -3.519531 4.664062 -3.765625 4.5 -3.984375 C 4.332031 -4.203125 4.117188 -4.378906 3.859375 -4.515625 C 3.609375 -4.660156 3.316406 -4.734375 2.984375 -4.734375 Z M 2.984375 -4.734375 "/></g></g></g><g fill="#523e27" fill-opacity="1"><g transform="translate(169.812653, 263.17888)"><g><path d="M 5.359375 -0.78125 C 5.359375 -0.71875 5.363281 -0.644531 5.375 -0.5625 C 5.394531 -0.488281 5.421875 -0.421875 5.453125 -0.359375 C 5.492188 -0.296875 5.535156 -0.238281 5.578125 -0.1875 C 5.628906 -0.144531 5.6875 -0.125 5.75 -0.125 L 5.75 0 L 4.203125 0 L 4.203125 -0.125 C 4.253906 -0.125 4.300781 -0.144531 4.34375 -0.1875 C 4.394531 -0.238281 4.4375 -0.296875 4.46875 -0.359375 C 4.507812 -0.421875 4.535156 -0.488281 4.546875 -0.5625 C 4.566406 -0.644531 4.578125 -0.71875 4.578125 -0.78125 L 4.578125 -3.015625 C 4.578125 -3.296875 4.535156 -3.546875 4.453125 -3.765625 C 4.378906 -3.984375 4.273438 -4.164062 4.140625 -4.3125 C 4.003906 -4.457031 3.847656 -4.5625 3.671875 -4.625 C 3.503906 -4.695312 3.332031 -4.734375 3.15625 -4.734375 C 2.976562 -4.734375 2.800781 -4.695312 2.625 -4.625 C 2.457031 -4.550781 2.304688 -4.453125 2.171875 -4.328125 C 2.046875 -4.210938 1.941406 -4.078125 1.859375 -3.921875 C 1.773438 -3.773438 1.734375 -3.613281 1.734375 -3.4375 L 1.734375 -0.78125 C 1.734375 -0.71875 1.738281 -0.644531 1.75 -0.5625 C 1.769531 -0.488281 1.796875 -0.421875 1.828125 -0.359375 C 1.867188 -0.296875 1.910156 -0.238281 1.953125 -0.1875 C 1.992188 -0.144531 2.046875 -0.125 2.109375 -0.125 L 2.109375 0 L 0.546875 0 L 0.546875 -0.125 C 0.609375 -0.125 0.660156 -0.144531 0.703125 -0.1875 C 0.753906 -0.238281 0.796875 -0.296875 0.828125 -0.359375 C 0.867188 -0.421875 0.894531 -0.488281 0.90625 -0.5625 C 0.925781 -0.644531 0.9375 -0.71875 0.9375 -0.78125 L 0.9375 -4.09375 C 0.9375 -4.226562 0.914062 -4.359375 0.875 -4.484375 C 0.832031 -4.609375 0.71875 -4.675781 0.53125 -4.6875 L 0.53125 -4.78125 L 1.734375 -5.171875 L 1.734375 -4.515625 C 1.785156 -4.578125 1.851562 -4.644531 1.9375 -4.71875 C 2.03125 -4.800781 2.140625 -4.875 2.265625 -4.9375 C 2.390625 -5.007812 2.53125 -5.066406 2.6875 -5.109375 C 2.851562 -5.148438 3.050781 -5.171875 3.28125 -5.171875 C 3.65625 -5.171875 3.972656 -5.101562 4.234375 -4.96875 C 4.492188 -4.84375 4.707031 -4.675781 4.875 -4.46875 C 5.050781 -4.269531 5.175781 -4.046875 5.25 -3.796875 C 5.320312 -3.554688 5.359375 -3.320312 5.359375 -3.09375 Z M 5.359375 -0.78125 "/></g></g></g><g fill="#523e27" fill-opacity="1"><g transform="translate(176.196671, 263.17888)"><g/></g></g><g fill="#523e27" fill-opacity="1"><g transform="translate(179.316673, 263.17888)"><g><path d="M 0.703125 0 L 0.703125 -0.125 C 0.765625 -0.125 0.820312 -0.144531 0.875 -0.1875 C 0.925781 -0.238281 0.96875 -0.296875 1 -0.359375 C 1.03125 -0.421875 1.050781 -0.488281 1.0625 -0.5625 C 1.082031 -0.644531 1.09375 -0.71875 1.09375 -0.78125 L 1.09375 -4.109375 C 1.09375 -4.242188 1.070312 -4.375 1.03125 -4.5 C 0.988281 -4.625 0.875 -4.6875 0.6875 -4.6875 L 0.6875 -4.796875 L 1.890625 -5.1875 L 1.890625 -0.78125 C 1.890625 -0.71875 1.894531 -0.644531 1.90625 -0.5625 C 1.925781 -0.488281 1.953125 -0.421875 1.984375 -0.359375 C 2.015625 -0.296875 2.050781 -0.238281 2.09375 -0.1875 C 2.144531 -0.144531 2.203125 -0.125 2.265625 -0.125 L 2.265625 0 Z M 0.765625 -6.34375 C 0.765625 -6.5 0.816406 -6.628906 0.921875 -6.734375 C 1.035156 -6.847656 1.171875 -6.90625 1.328125 -6.90625 C 1.492188 -6.90625 1.628906 -6.847656 1.734375 -6.734375 C 1.847656 -6.628906 1.90625 -6.5 1.90625 -6.34375 C 1.90625 -6.175781 1.847656 -6.039062 1.734375 -5.9375 C 1.628906 -5.832031 1.492188 -5.78125 1.328125 -5.78125 C 1.171875 -5.78125 1.035156 -5.832031 0.921875 -5.9375 C 0.816406 -6.039062 0.765625 -6.175781 0.765625 -6.34375 Z M 0.765625 -6.34375 "/></g></g></g><g fill="#523e27" fill-opacity="1"><g transform="translate(182.328678, 263.17888)"><g><path d="M 4.4375 -1.375 C 4.4375 -1.164062 4.382812 -0.972656 4.28125 -0.796875 C 4.175781 -0.617188 4.035156 -0.460938 3.859375 -0.328125 C 3.679688 -0.191406 3.472656 -0.0859375 3.234375 -0.015625 C 2.992188 0.0546875 2.734375 0.09375 2.453125 0.09375 C 2.109375 0.09375 1.828125 0.046875 1.609375 -0.046875 C 1.390625 -0.140625 1.207031 -0.234375 1.0625 -0.328125 C 0.957031 -0.390625 0.859375 -0.441406 0.765625 -0.484375 C 0.679688 -0.523438 0.585938 -0.546875 0.484375 -0.546875 L 0.484375 -1.46875 L 0.59375 -1.46875 C 0.625 -1.351562 0.695312 -1.226562 0.8125 -1.09375 C 0.925781 -0.96875 1.0625 -0.847656 1.21875 -0.734375 C 1.382812 -0.617188 1.566406 -0.523438 1.765625 -0.453125 C 1.960938 -0.378906 2.160156 -0.34375 2.359375 -0.34375 C 2.503906 -0.34375 2.648438 -0.359375 2.796875 -0.390625 C 2.953125 -0.421875 3.09375 -0.46875 3.21875 -0.53125 C 3.34375 -0.601562 3.445312 -0.691406 3.53125 -0.796875 C 3.613281 -0.910156 3.65625 -1.046875 3.65625 -1.203125 C 3.65625 -1.347656 3.609375 -1.476562 3.515625 -1.59375 C 3.429688 -1.707031 3.320312 -1.804688 3.1875 -1.890625 C 3.050781 -1.972656 2.894531 -2.046875 2.71875 -2.109375 C 2.539062 -2.171875 2.367188 -2.234375 2.203125 -2.296875 C 1.992188 -2.359375 1.78125 -2.425781 1.5625 -2.5 C 1.351562 -2.582031 1.164062 -2.675781 1 -2.78125 C 0.832031 -2.894531 0.695312 -3.03125 0.59375 -3.1875 C 0.488281 -3.34375 0.4375 -3.53125 0.4375 -3.75 C 0.4375 -3.925781 0.46875 -4.097656 0.53125 -4.265625 C 0.601562 -4.441406 0.71875 -4.585938 0.875 -4.703125 C 1.03125 -4.828125 1.226562 -4.925781 1.46875 -5 C 1.71875 -5.082031 2.019531 -5.125 2.375 -5.125 C 2.6875 -5.125 2.925781 -5.097656 3.09375 -5.046875 C 3.269531 -4.992188 3.414062 -4.941406 3.53125 -4.890625 C 3.601562 -4.847656 3.675781 -4.816406 3.75 -4.796875 C 3.820312 -4.773438 3.898438 -4.765625 3.984375 -4.765625 L 3.984375 -3.921875 L 3.890625 -3.921875 C 3.742188 -4.179688 3.519531 -4.378906 3.21875 -4.515625 C 2.925781 -4.660156 2.625 -4.734375 2.3125 -4.734375 C 2.113281 -4.734375 1.941406 -4.707031 1.796875 -4.65625 C 1.648438 -4.601562 1.53125 -4.535156 1.4375 -4.453125 C 1.351562 -4.378906 1.285156 -4.296875 1.234375 -4.203125 C 1.191406 -4.109375 1.171875 -4.007812 1.171875 -3.90625 C 1.171875 -3.769531 1.207031 -3.65625 1.28125 -3.5625 C 1.363281 -3.46875 1.46875 -3.382812 1.59375 -3.3125 C 1.726562 -3.238281 1.878906 -3.171875 2.046875 -3.109375 C 2.210938 -3.046875 2.382812 -2.984375 2.5625 -2.921875 C 2.789062 -2.847656 3.015625 -2.769531 3.234375 -2.6875 C 3.460938 -2.601562 3.664062 -2.5 3.84375 -2.375 C 4.019531 -2.257812 4.160156 -2.117188 4.265625 -1.953125 C 4.378906 -1.796875 4.4375 -1.601562 4.4375 -1.375 Z M 4.4375 -1.375 "/></g></g></g><g fill="#523e27" fill-opacity="1"><g transform="translate(187.260692, 263.17888)"><g/></g></g><g fill="#523e27" fill-opacity="1"><g transform="translate(190.380695, 263.17888)"><g><path d="M 1.71875 -4.625 L 1.71875 -1.734375 C 1.71875 -1.523438 1.71875 -1.335938 1.71875 -1.171875 C 1.726562 -1.003906 1.75 -0.863281 1.78125 -0.75 C 1.820312 -0.644531 1.875 -0.5625 1.9375 -0.5 C 2 -0.4375 2.085938 -0.40625 2.203125 -0.40625 C 2.367188 -0.40625 2.523438 -0.484375 2.671875 -0.640625 C 2.816406 -0.804688 2.910156 -1 2.953125 -1.21875 L 3.0625 -1.21875 L 3.0625 -0.34375 C 2.988281 -0.34375 2.925781 -0.320312 2.875 -0.28125 C 2.8125 -0.21875 2.722656 -0.15625 2.609375 -0.09375 C 2.492188 -0.03125 2.320312 0 2.09375 0 C 1.800781 0 1.570312 -0.0546875 1.40625 -0.171875 C 1.25 -0.285156 1.132812 -0.429688 1.0625 -0.609375 C 0.988281 -0.796875 0.945312 -1 0.9375 -1.21875 C 0.925781 -1.445312 0.921875 -1.675781 0.921875 -1.90625 L 0.921875 -4.625 L 0.25 -4.625 L 0.25 -5.046875 L 0.921875 -5.046875 L 0.921875 -6.109375 C 0.921875 -6.242188 0.898438 -6.367188 0.859375 -6.484375 C 0.828125 -6.597656 0.710938 -6.660156 0.515625 -6.671875 L 0.515625 -6.796875 L 1.71875 -7.171875 L 1.71875 -5.046875 L 3.0625 -5.046875 L 3.0625 -4.625 Z M 1.71875 -4.625 "/></g></g></g><g fill="#523e27" fill-opacity="1"><g transform="translate(193.800704, 263.17888)"><g><path d="M 5.359375 -0.78125 C 5.359375 -0.71875 5.363281 -0.644531 5.375 -0.5625 C 5.394531 -0.488281 5.421875 -0.421875 5.453125 -0.359375 C 5.492188 -0.296875 5.535156 -0.238281 5.578125 -0.1875 C 5.628906 -0.144531 5.6875 -0.125 5.75 -0.125 L 5.75 0 L 4.203125 0 L 4.203125 -0.125 C 4.253906 -0.125 4.300781 -0.144531 4.34375 -0.1875 C 4.394531 -0.238281 4.4375 -0.296875 4.46875 -0.359375 C 4.507812 -0.421875 4.535156 -0.488281 4.546875 -0.5625 C 4.566406 -0.644531 4.578125 -0.71875 4.578125 -0.78125 L 4.578125 -3.015625 C 4.578125 -3.296875 4.535156 -3.546875 4.453125 -3.765625 C 4.378906 -3.984375 4.273438 -4.164062 4.140625 -4.3125 C 4.003906 -4.457031 3.847656 -4.5625 3.671875 -4.625 C 3.503906 -4.695312 3.332031 -4.734375 3.15625 -4.734375 C 2.976562 -4.734375 2.800781 -4.695312 2.625 -4.625 C 2.457031 -4.5625 2.304688 -4.46875 2.171875 -4.34375 C 2.046875 -4.21875 1.941406 -4.066406 1.859375 -3.890625 C 1.773438 -3.722656 1.734375 -3.539062 1.734375 -3.34375 L 1.734375 -0.78125 C 1.734375 -0.71875 1.738281 -0.644531 1.75 -0.5625 C 1.769531 -0.488281 1.796875 -0.421875 1.828125 -0.359375 C 1.867188 -0.296875 1.910156 -0.238281 1.953125 -0.1875 C 1.992188 -0.144531 2.046875 -0.125 2.109375 -0.125 L 2.109375 0 L 0.546875 0 L 0.546875 -0.125 C 0.609375 -0.125 0.660156 -0.144531 0.703125 -0.1875 C 0.753906 -0.238281 0.796875 -0.296875 0.828125 -0.359375 C 0.867188 -0.421875 0.894531 -0.488281 0.90625 -0.5625 C 0.925781 -0.644531 0.9375 -0.71875 0.9375 -0.78125 L 0.9375 -6.90625 C 0.9375 -7.039062 0.914062 -7.164062 0.875 -7.28125 C 0.832031 -7.40625 0.71875 -7.472656 0.53125 -7.484375 L 0.53125 -7.609375 L 1.734375 -7.984375 L 1.734375 -4.515625 C 1.785156 -4.578125 1.851562 -4.644531 1.9375 -4.71875 C 2.03125 -4.800781 2.140625 -4.875 2.265625 -4.9375 C 2.390625 -5.007812 2.53125 -5.066406 2.6875 -5.109375 C 2.851562 -5.148438 3.050781 -5.171875 3.28125 -5.171875 C 3.65625 -5.171875 3.972656 -5.101562 4.234375 -4.96875 C 4.492188 -4.84375 4.707031 -4.675781 4.875 -4.46875 C 5.050781 -4.269531 5.175781 -4.046875 5.25 -3.796875 C 5.320312 -3.554688 5.359375 -3.320312 5.359375 -3.09375 Z M 5.359375 -0.78125 "/></g></g></g><g fill="#523e27" fill-opacity="1"><g transform="translate(200.184722, 263.17888)"><g><path d="M 1.203125 -2.421875 C 1.234375 -2.140625 1.300781 -1.875 1.40625 -1.625 C 1.507812 -1.375 1.644531 -1.148438 1.8125 -0.953125 C 1.988281 -0.765625 2.195312 -0.613281 2.4375 -0.5 C 2.6875 -0.382812 2.976562 -0.328125 3.3125 -0.328125 C 3.488281 -0.328125 3.671875 -0.351562 3.859375 -0.40625 C 4.054688 -0.457031 4.238281 -0.53125 4.40625 -0.625 C 4.582031 -0.71875 4.734375 -0.832031 4.859375 -0.96875 C 4.992188 -1.113281 5.085938 -1.273438 5.140625 -1.453125 L 5.25 -1.453125 L 5.25 -0.546875 C 5.195312 -0.546875 5.140625 -0.53125 5.078125 -0.5 C 5.015625 -0.46875 4.945312 -0.429688 4.875 -0.390625 C 4.707031 -0.285156 4.488281 -0.179688 4.21875 -0.078125 C 3.945312 0.0234375 3.585938 0.078125 3.140625 0.078125 C 2.785156 0.078125 2.441406 0.0234375 2.109375 -0.078125 C 1.785156 -0.179688 1.5 -0.335938 1.25 -0.546875 C 1.007812 -0.765625 0.8125 -1.039062 0.65625 -1.375 C 0.507812 -1.71875 0.4375 -2.117188 0.4375 -2.578125 C 0.4375 -2.878906 0.488281 -3.179688 0.59375 -3.484375 C 0.695312 -3.785156 0.847656 -4.054688 1.046875 -4.296875 C 1.253906 -4.546875 1.515625 -4.742188 1.828125 -4.890625 C 2.148438 -5.046875 2.535156 -5.125 2.984375 -5.125 C 3.390625 -5.125 3.738281 -5.054688 4.03125 -4.921875 C 4.332031 -4.785156 4.582031 -4.597656 4.78125 -4.359375 C 4.976562 -4.117188 5.125 -3.832031 5.21875 -3.5 C 5.3125 -3.175781 5.359375 -2.816406 5.359375 -2.421875 Z M 2.9375 -4.734375 C 2.65625 -4.734375 2.410156 -4.675781 2.203125 -4.5625 C 2.003906 -4.445312 1.832031 -4.300781 1.6875 -4.125 C 1.539062 -3.945312 1.425781 -3.742188 1.34375 -3.515625 C 1.269531 -3.296875 1.222656 -3.078125 1.203125 -2.859375 L 4.625 -2.859375 C 4.613281 -3.085938 4.566406 -3.3125 4.484375 -3.53125 C 4.410156 -3.757812 4.304688 -3.960938 4.171875 -4.140625 C 4.035156 -4.316406 3.863281 -4.457031 3.65625 -4.5625 C 3.445312 -4.675781 3.207031 -4.734375 2.9375 -4.734375 Z M 2.9375 -4.734375 "/></g></g></g><g fill="#523e27" fill-opacity="1"><g transform="translate(206.004729, 263.17888)"><g/></g></g><g fill="#523e27" fill-opacity="1"><g transform="translate(209.124731, 263.17888)"><g><path d="M 1.65625 -4.625 L 1.65625 -0.78125 C 1.65625 -0.71875 1.660156 -0.644531 1.671875 -0.5625 C 1.691406 -0.488281 1.71875 -0.421875 1.75 -0.359375 C 1.789062 -0.296875 1.832031 -0.238281 1.875 -0.1875 C 1.914062 -0.144531 1.972656 -0.125 2.046875 -0.125 L 2.046875 0 L 0.484375 0 L 0.484375 -0.125 C 0.535156 -0.125 0.582031 -0.144531 0.625 -0.1875 C 0.675781 -0.238281 0.71875 -0.296875 0.75 -0.359375 C 0.789062 -0.421875 0.816406 -0.488281 0.828125 -0.5625 C 0.847656 -0.644531 0.859375 -0.71875 0.859375 -0.78125 L 0.859375 -4.625 L 0.265625 -4.625 L 0.265625 -5.046875 L 0.859375 -5.046875 L 0.859375 -6.015625 C 0.859375 -6.265625 0.863281 -6.503906 0.875 -6.734375 C 0.894531 -6.960938 0.945312 -7.164062 1.03125 -7.34375 C 1.113281 -7.53125 1.234375 -7.679688 1.390625 -7.796875 C 1.554688 -7.910156 1.785156 -7.96875 2.078125 -7.96875 C 2.234375 -7.96875 2.367188 -7.945312 2.484375 -7.90625 C 2.597656 -7.875 2.695312 -7.835938 2.78125 -7.796875 C 2.875 -7.753906 2.945312 -7.710938 3 -7.671875 C 3.050781 -7.640625 3.097656 -7.625 3.140625 -7.625 L 3.140625 -6.75 L 3.03125 -6.75 C 2.988281 -6.976562 2.882812 -7.171875 2.71875 -7.328125 C 2.550781 -7.484375 2.382812 -7.5625 2.21875 -7.5625 C 1.988281 -7.5625 1.835938 -7.4375 1.765625 -7.1875 C 1.691406 -6.945312 1.65625 -6.613281 1.65625 -6.1875 L 1.65625 -5.046875 L 3.015625 -5.046875 L 3.015625 -4.625 Z M 1.65625 -4.625 "/></g></g></g><g fill="#523e27" fill-opacity="1"><g transform="translate(212.484739, 263.17888)"><g><path d="M 5.296875 -0.78125 C 5.296875 -0.726562 5.300781 -0.660156 5.3125 -0.578125 C 5.332031 -0.503906 5.351562 -0.429688 5.375 -0.359375 C 5.40625 -0.296875 5.441406 -0.238281 5.484375 -0.1875 C 5.535156 -0.144531 5.59375 -0.125 5.65625 -0.125 L 5.65625 0 L 4.5 0 L 4.5 -0.65625 C 4.375 -0.476562 4.195312 -0.304688 3.96875 -0.140625 C 3.738281 0.0234375 3.441406 0.109375 3.078125 0.109375 C 2.609375 0.109375 2.238281 0.03125 1.96875 -0.125 C 1.695312 -0.289062 1.488281 -0.492188 1.34375 -0.734375 C 1.195312 -0.984375 1.101562 -1.253906 1.0625 -1.546875 C 1.03125 -1.835938 1.015625 -2.113281 1.015625 -2.375 L 1.015625 -4.09375 C 1.015625 -4.164062 1.007812 -4.234375 1 -4.296875 C 1 -4.367188 0.984375 -4.429688 0.953125 -4.484375 C 0.921875 -4.546875 0.878906 -4.59375 0.828125 -4.625 C 0.773438 -4.664062 0.695312 -4.6875 0.59375 -4.6875 L 0.59375 -4.78125 L 1.796875 -5.171875 L 1.796875 -2.109375 C 1.796875 -1.503906 1.925781 -1.054688 2.1875 -0.765625 C 2.457031 -0.484375 2.785156 -0.34375 3.171875 -0.34375 C 3.378906 -0.34375 3.5625 -0.382812 3.71875 -0.46875 C 3.882812 -0.5625 4.023438 -0.671875 4.140625 -0.796875 C 4.253906 -0.929688 4.34375 -1.066406 4.40625 -1.203125 C 4.46875 -1.335938 4.5 -1.445312 4.5 -1.53125 L 4.5 -4.09375 C 4.5 -4.164062 4.492188 -4.234375 4.484375 -4.296875 C 4.484375 -4.367188 4.46875 -4.429688 4.4375 -4.484375 C 4.414062 -4.546875 4.375 -4.59375 4.3125 -4.625 C 4.257812 -4.664062 4.179688 -4.6875 4.078125 -4.6875 L 4.078125 -4.78125 L 5.296875 -5.171875 Z M 5.296875 -0.78125 "/></g></g></g><g fill="#523e27" fill-opacity="1"><g transform="translate(218.772752, 263.17888)"><g><path d="M 1.71875 -4.625 L 1.71875 -1.734375 C 1.71875 -1.523438 1.71875 -1.335938 1.71875 -1.171875 C 1.726562 -1.003906 1.75 -0.863281 1.78125 -0.75 C 1.820312 -0.644531 1.875 -0.5625 1.9375 -0.5 C 2 -0.4375 2.085938 -0.40625 2.203125 -0.40625 C 2.367188 -0.40625 2.523438 -0.484375 2.671875 -0.640625 C 2.816406 -0.804688 2.910156 -1 2.953125 -1.21875 L 3.0625 -1.21875 L 3.0625 -0.34375 C 2.988281 -0.34375 2.925781 -0.320312 2.875 -0.28125 C 2.8125 -0.21875 2.722656 -0.15625 2.609375 -0.09375 C 2.492188 -0.03125 2.320312 0 2.09375 0 C 1.800781 0 1.570312 -0.0546875 1.40625 -0.171875 C 1.25 -0.285156 1.132812 -0.429688 1.0625 -0.609375 C 0.988281 -0.796875 0.945312 -1 0.9375 -1.21875 C 0.925781 -1.445312 0.921875 -1.675781 0.921875 -1.90625 L 0.921875 -4.625 L 0.25 -4.625 L 0.25 -5.046875 L 0.921875 -5.046875 L 0.921875 -6.109375 C 0.921875 -6.242188 0.898438 -6.367188 0.859375 -6.484375 C 0.828125 -6.597656 0.710938 -6.660156 0.515625 -6.671875 L 0.515625 -6.796875 L 1.71875 -7.171875 L 1.71875 -5.046875 L 3.0625 -5.046875 L 3.0625 -4.625 Z M 1.71875 -4.625 "/></g></g></g><g fill="#523e27" fill-opacity="1"><g transform="translate(222.192762, 263.17888)"><g><path d="M 5.296875 -0.78125 C 5.296875 -0.726562 5.300781 -0.660156 5.3125 -0.578125 C 5.332031 -0.503906 5.351562 -0.429688 5.375 -0.359375 C 5.40625 -0.296875 5.441406 -0.238281 5.484375 -0.1875 C 5.535156 -0.144531 5.59375 -0.125 5.65625 -0.125 L 5.65625 0 L 4.5 0 L 4.5 -0.65625 C 4.375 -0.476562 4.195312 -0.304688 3.96875 -0.140625 C 3.738281 0.0234375 3.441406 0.109375 3.078125 0.109375 C 2.609375 0.109375 2.238281 0.03125 1.96875 -0.125 C 1.695312 -0.289062 1.488281 -0.492188 1.34375 -0.734375 C 1.195312 -0.984375 1.101562 -1.253906 1.0625 -1.546875 C 1.03125 -1.835938 1.015625 -2.113281 1.015625 -2.375 L 1.015625 -4.09375 C 1.015625 -4.164062 1.007812 -4.234375 1 -4.296875 C 1 -4.367188 0.984375 -4.429688 0.953125 -4.484375 C 0.921875 -4.546875 0.878906 -4.59375 0.828125 -4.625 C 0.773438 -4.664062 0.695312 -4.6875 0.59375 -4.6875 L 0.59375 -4.78125 L 1.796875 -5.171875 L 1.796875 -2.109375 C 1.796875 -1.503906 1.925781 -1.054688 2.1875 -0.765625 C 2.457031 -0.484375 2.785156 -0.34375 3.171875 -0.34375 C 3.378906 -0.34375 3.5625 -0.382812 3.71875 -0.46875 C 3.882812 -0.5625 4.023438 -0.671875 4.140625 -0.796875 C 4.253906 -0.929688 4.34375 -1.066406 4.40625 -1.203125 C 4.46875 -1.335938 4.5 -1.445312 4.5 -1.53125 L 4.5 -4.09375 C 4.5 -4.164062 4.492188 -4.234375 4.484375 -4.296875 C 4.484375 -4.367188 4.46875 -4.429688 4.4375 -4.484375 C 4.414062 -4.546875 4.375 -4.59375 4.3125 -4.625 C 4.257812 -4.664062 4.179688 -4.6875 4.078125 -4.6875 L 4.078125 -4.78125 L 5.296875 -5.171875 Z M 5.296875 -0.78125 "/></g></g></g><g fill="#523e27" fill-opacity="1"><g transform="translate(228.480775, 263.17888)"><g><path d="M 3.46875 -4.15625 C 3.375 -4.320312 3.273438 -4.425781 3.171875 -4.46875 C 3.066406 -4.507812 2.945312 -4.53125 2.8125 -4.53125 C 2.71875 -4.53125 2.617188 -4.507812 2.515625 -4.46875 C 2.421875 -4.425781 2.328125 -4.375 2.234375 -4.3125 C 2.140625 -4.25 2.046875 -4.175781 1.953125 -4.09375 C 1.859375 -4.019531 1.78125 -3.953125 1.71875 -3.890625 L 1.71875 -0.765625 C 1.71875 -0.703125 1.722656 -0.632812 1.734375 -0.5625 C 1.753906 -0.488281 1.78125 -0.414062 1.8125 -0.34375 C 1.851562 -0.28125 1.894531 -0.226562 1.9375 -0.1875 C 1.976562 -0.144531 2.03125 -0.125 2.09375 -0.125 L 2.09375 0 L 0.546875 0 L 0.546875 -0.125 C 0.597656 -0.125 0.644531 -0.144531 0.6875 -0.1875 C 0.738281 -0.226562 0.78125 -0.28125 0.8125 -0.34375 C 0.851562 -0.414062 0.878906 -0.488281 0.890625 -0.5625 C 0.910156 -0.632812 0.921875 -0.703125 0.921875 -0.765625 L 0.921875 -4.109375 C 0.921875 -4.222656 0.882812 -4.335938 0.8125 -4.453125 C 0.738281 -4.566406 0.632812 -4.640625 0.5 -4.671875 L 0.5 -4.765625 L 1.71875 -5.125 L 1.71875 -4.40625 C 1.789062 -4.488281 1.863281 -4.570312 1.9375 -4.65625 C 2.019531 -4.738281 2.109375 -4.8125 2.203125 -4.875 C 2.304688 -4.945312 2.414062 -5.003906 2.53125 -5.046875 C 2.65625 -5.097656 2.800781 -5.125 2.96875 -5.125 C 3.070312 -5.125 3.210938 -5.097656 3.390625 -5.046875 C 3.566406 -5.003906 3.710938 -4.953125 3.828125 -4.890625 Z M 3.46875 -4.15625 "/></g></g></g><g fill="#523e27" fill-opacity="1"><g transform="translate(232.524784, 263.17888)"><g><path d="M 1.203125 -2.421875 C 1.234375 -2.140625 1.300781 -1.875 1.40625 -1.625 C 1.507812 -1.375 1.644531 -1.148438 1.8125 -0.953125 C 1.988281 -0.765625 2.195312 -0.613281 2.4375 -0.5 C 2.6875 -0.382812 2.976562 -0.328125 3.3125 -0.328125 C 3.488281 -0.328125 3.671875 -0.351562 3.859375 -0.40625 C 4.054688 -0.457031 4.238281 -0.53125 4.40625 -0.625 C 4.582031 -0.71875 4.734375 -0.832031 4.859375 -0.96875 C 4.992188 -1.113281 5.085938 -1.273438 5.140625 -1.453125 L 5.25 -1.453125 L 5.25 -0.546875 C 5.195312 -0.546875 5.140625 -0.53125 5.078125 -0.5 C 5.015625 -0.46875 4.945312 -0.429688 4.875 -0.390625 C 4.707031 -0.285156 4.488281 -0.179688 4.21875 -0.078125 C 3.945312 0.0234375 3.585938 0.078125 3.140625 0.078125 C 2.785156 0.078125 2.441406 0.0234375 2.109375 -0.078125 C 1.785156 -0.179688 1.5 -0.335938 1.25 -0.546875 C 1.007812 -0.765625 0.8125 -1.039062 0.65625 -1.375 C 0.507812 -1.71875 0.4375 -2.117188 0.4375 -2.578125 C 0.4375 -2.878906 0.488281 -3.179688 0.59375 -3.484375 C 0.695312 -3.785156 0.847656 -4.054688 1.046875 -4.296875 C 1.253906 -4.546875 1.515625 -4.742188 1.828125 -4.890625 C 2.148438 -5.046875 2.535156 -5.125 2.984375 -5.125 C 3.390625 -5.125 3.738281 -5.054688 4.03125 -4.921875 C 4.332031 -4.785156 4.582031 -4.597656 4.78125 -4.359375 C 4.976562 -4.117188 5.125 -3.832031 5.21875 -3.5 C 5.3125 -3.175781 5.359375 -2.816406 5.359375 -2.421875 Z M 2.9375 -4.734375 C 2.65625 -4.734375 2.410156 -4.675781 2.203125 -4.5625 C 2.003906 -4.445312 1.832031 -4.300781 1.6875 -4.125 C 1.539062 -3.945312 1.425781 -3.742188 1.34375 -3.515625 C 1.269531 -3.296875 1.222656 -3.078125 1.203125 -2.859375 L 4.625 -2.859375 C 4.613281 -3.085938 4.566406 -3.3125 4.484375 -3.53125 C 4.410156 -3.757812 4.304688 -3.960938 4.171875 -4.140625 C 4.035156 -4.316406 3.863281 -4.457031 3.65625 -4.5625 C 3.445312 -4.675781 3.207031 -4.734375 2.9375 -4.734375 Z M 2.9375 -4.734375 "/></g></g></g></svg>