<svg xmlns="http://www.w3.org/2000/svg" xmlns:xlink="http://www.w3.org/1999/xlink" width="500" zoomAndPan="magnify" viewBox="0 0 375 374.999991" height="500" preserveAspectRatio="xMidYMid meet" version="1.0"><defs><g/><clipPath id="28a1be570f"><path d="M 119.308594 140 L 188 140 L 188 200.019531 L 119.308594 200.019531 Z M 119.308594 140 " clip-rule="nonzero"/></clipPath><clipPath id="eaff1ea0a1"><path d="M 187 108.519531 L 255.808594 108.519531 L 255.808594 169 L 187 169 Z M 187 108.519531 " clip-rule="nonzero"/></clipPath></defs><rect x="-37.5" width="450" fill="#ffffff" y="-37.499999" height="449.999989" fill-opacity="1"/><rect x="-37.5" width="450" fill="#f3f5f9" y="-37.499999" height="449.999989" fill-opacity="1"/><g clip-path="url(#28a1be570f)"><path fill="#0652e9" d="M 165.230469 182.664062 L 165.230469 190.964844 L 127.636719 173.5 L 127.636719 166.765625 L 165.230469 149.296875 L 165.230469 157.601562 L 136.800781 170.054688 L 136.800781 170.210938 Z M 187.558594 140.074219 L 124.6875 140.074219 C 121.71875 140.074219 119.3125 142.480469 119.3125 145.449219 L 119.3125 194.816406 C 119.3125 197.785156 121.71875 200.191406 124.6875 200.191406 L 170.105469 200.191406 L 187.558594 140.074219 " fill-opacity="1" fill-rule="nonzero"/></g><g clip-path="url(#eaff1ea0a1)"><path fill="#38b6ff" d="M 247.378906 142.210938 L 209.785156 159.441406 L 209.785156 151.136719 L 238.839844 138.683594 L 238.839844 138.527344 L 209.785156 126.074219 L 209.785156 117.773438 L 247.378906 135.003906 Z M 205.011719 108.546875 L 187.558594 168.664062 L 250.328125 168.664062 C 253.292969 168.664062 255.699219 166.257812 255.699219 163.289062 L 255.699219 113.921875 C 255.699219 110.953125 253.292969 108.546875 250.328125 108.546875 L 205.011719 108.546875 " fill-opacity="1" fill-rule="nonzero"/></g><g fill="#000000" fill-opacity="1"><g transform="translate(77.026908, 236.784829)"><g><path d="M 12.078125 0.28125 C 16.234375 0.28125 19.84375 -2.0625 21.625 -5.5 L 17.640625 -7.5625 C 16.625 -5.5625 14.5625 -4.234375 12.078125 -4.234375 C 8.546875 -4.234375 5.84375 -6.96875 5.84375 -10.5 C 5.84375 -14.03125 8.546875 -16.765625 12.078125 -16.765625 C 14.5625 -16.765625 16.625 -15.4375 17.640625 -13.4375 L 21.625 -15.5 C 19.84375 -18.9375 16.234375 -21.28125 12.078125 -21.28125 C 6.125 -21.28125 1.296875 -16.453125 1.296875 -10.5 C 1.296875 -4.546875 6.125 0.28125 12.078125 0.28125 Z M 12.078125 0.28125 "/></g></g></g><g fill="#000000" fill-opacity="1"><g transform="translate(100.795791, 236.784829)"><g><path d="M 12.078125 0.28125 C 18.0625 0.28125 22.859375 -4.546875 22.859375 -10.5 C 22.859375 -16.453125 18.0625 -21.28125 12.078125 -21.28125 C 6.125 -21.28125 1.296875 -16.453125 1.296875 -10.5 C 1.296875 -4.546875 6.125 0.28125 12.078125 0.28125 Z M 12.078125 -4.234375 C 8.546875 -4.234375 5.84375 -6.96875 5.84375 -10.5 C 5.84375 -14.03125 8.546875 -16.765625 12.078125 -16.765625 C 15.640625 -16.765625 18.34375 -14.03125 18.34375 -10.5 C 18.34375 -6.96875 15.640625 -4.234375 12.078125 -4.234375 Z M 12.078125 -4.234375 "/></g></g></g><g fill="#000000" fill-opacity="1"><g transform="translate(126.209438, 236.784829)"><g><path d="M 2.0625 0 L 9 0 C 14.765625 0 19.5 -4.6875 19.5 -10.5 C 19.5 -16.3125 14.765625 -21 9 -21 L 2.0625 -21 Z M 6.6875 -4.09375 L 6.6875 -16.90625 L 8.953125 -16.90625 C 12.28125 -16.90625 14.875 -14.140625 14.875 -10.5 C 14.875 -6.859375 12.28125 -4.09375 8.953125 -4.09375 Z M 6.6875 -4.09375 "/></g></g></g><g fill="#000000" fill-opacity="1"><g transform="translate(148.228568, 236.784829)"><g><path d="M 2.234375 0 L 6.859375 0 L 6.859375 -21 L 2.234375 -21 Z M 2.234375 0 "/></g></g></g><g fill="#000000" fill-opacity="1"><g transform="translate(158.524324, 236.784829)"><g><path d="M 17.15625 -21 L 17.15625 -7.109375 L 6.828125 -21 L 2.0625 -21 L 2.0625 0 L 6.6875 0 L 6.6875 -13.9375 L 16.96875 0 L 21.734375 0 L 21.734375 -21 Z M 17.15625 -21 "/></g></g></g><g fill="#000000" fill-opacity="1"><g transform="translate(183.588022, 236.784829)"><g><path d="M 12.078125 -11.515625 L 12.078125 -7.90625 L 17.84375 -7.90625 C 16.875 -5.703125 14.703125 -4.234375 12.109375 -4.234375 C 8.578125 -4.234375 5.84375 -6.96875 5.84375 -10.5 C 5.84375 -14.03125 8.578125 -16.765625 12.109375 -16.765625 C 14.59375 -16.765625 16.625 -15.4375 17.671875 -13.4375 L 21.671875 -15.5 C 19.84375 -18.9375 16.234375 -21.28125 12.109375 -21.28125 C 6.125 -21.28125 1.328125 -16.453125 1.328125 -10.5 C 1.328125 -4.546875 6.125 0.28125 12.109375 0.28125 C 18.0625 0.28125 22.890625 -4.546875 22.890625 -10.5 L 22.890625 -11.515625 Z M 12.078125 -11.515625 "/></g></g></g><g fill="#000000" fill-opacity="1"><g transform="translate(209.036671, 236.784829)"><g/></g></g><g fill="#000000" fill-opacity="1"><g transform="translate(218.667514, 236.784829)"><g><path d="M 15.015625 -21 L -0.171875 -21 L -0.171875 -16.90625 L 5.140625 -16.90625 L 5.140625 0 L 9.734375 0 L 9.734375 -16.90625 L 15.015625 -16.90625 Z M 15.015625 -21 "/></g></g></g><g fill="#000000" fill-opacity="1"><g transform="translate(234.737467, 236.784829)"><g><path d="M 14.875 -16.9375 L 14.875 -21 L 2.234375 -21 L 2.234375 0 L 14.875 0 L 14.875 -4.0625 L 6.859375 -4.0625 L 6.859375 -8.46875 L 13.71875 -8.46875 L 13.71875 -12.53125 L 6.859375 -12.53125 L 6.859375 -16.9375 Z M 14.875 -16.9375 "/></g></g></g><g fill="#000000" fill-opacity="1"><g transform="translate(252.277219, 236.784829)"><g><path d="M 12.078125 0.28125 C 16.234375 0.28125 19.84375 -2.0625 21.625 -5.5 L 17.640625 -7.5625 C 16.625 -5.5625 14.5625 -4.234375 12.078125 -4.234375 C 8.546875 -4.234375 5.84375 -6.96875 5.84375 -10.5 C 5.84375 -14.03125 8.546875 -16.765625 12.078125 -16.765625 C 14.5625 -16.765625 16.625 -15.4375 17.640625 -13.4375 L 21.625 -15.5 C 19.84375 -18.9375 16.234375 -21.28125 12.078125 -21.28125 C 6.125 -21.28125 1.296875 -16.453125 1.296875 -10.5 C 1.296875 -4.546875 6.125 0.28125 12.078125 0.28125 Z M 12.078125 0.28125 "/></g></g></g><g fill="#000000" fill-opacity="1"><g transform="translate(276.046104, 236.784829)"><g><path d="M 15.21875 -21 L 15.21875 -12.5625 L 6.6875 -12.5625 L 6.6875 -21 L 2.0625 -21 L 2.0625 0 L 6.6875 0 L 6.6875 -8.46875 L 15.21875 -8.46875 L 15.21875 0 L 19.8125 0 L 19.8125 -21 Z M 15.21875 -21 "/></g></g></g><g fill="#000000" fill-opacity="1"><g transform="translate(110.412163, 263.178909)"><g><path d="M 1.09375 0 L 3.5625 0 C 6.03125 0 8.0625 -2.015625 8.0625 -4.5 C 8.0625 -6.984375 6.03125 -9 3.5625 -9 L 1.09375 -9 Z M 2.046875 -0.953125 L 2.046875 -8.046875 L 3.546875 -8.046875 C 5.53125 -8.046875 7.09375 -6.53125 7.09375 -4.5 C 7.09375 -2.46875 5.53125 -0.953125 3.546875 -0.953125 Z M 2.046875 -0.953125 "/></g></g></g><g fill="#000000" fill-opacity="1"><g transform="translate(123.222227, 263.178909)"><g><path d="M 1.171875 0 L 2.125 0 L 2.125 -9 L 1.171875 -9 Z M 1.171875 0 "/></g></g></g><g fill="#000000" fill-opacity="1"><g transform="translate(130.527293, 263.178909)"><g><path d="M 5.390625 -4.765625 L 5.390625 -3.875 L 9 -3.875 C 8.71875 -2.125 7.21875 -0.84375 5.40625 -0.84375 C 3.375 -0.84375 1.734375 -2.453125 1.734375 -4.5 C 1.734375 -6.546875 3.375 -8.15625 5.40625 -8.15625 C 6.765625 -8.15625 7.96875 -7.421875 8.578125 -6.3125 L 9.40625 -6.78125 C 8.625 -8.171875 7.125 -9.125 5.40625 -9.125 C 2.828125 -9.125 0.78125 -7.046875 0.78125 -4.5 C 0.78125 -1.953125 2.828125 0.125 5.40625 0.125 C 7.953125 0.125 10.015625 -1.953125 10.015625 -4.5 L 10.015625 -4.765625 Z M 5.390625 -4.765625 "/></g></g></g><g fill="#000000" fill-opacity="1"><g transform="translate(145.332359, 263.178909)"><g><path d="M 1.171875 0 L 2.125 0 L 2.125 -9 L 1.171875 -9 Z M 1.171875 0 "/></g></g></g><g fill="#000000" fill-opacity="1"><g transform="translate(152.637426, 263.178909)"><g><path d="M 6.078125 -9 L 0.140625 -9 L 0.140625 -8.046875 L 2.625 -8.046875 L 2.625 0 L 3.578125 0 L 3.578125 -8.046875 L 6.078125 -8.046875 Z M 6.078125 -9 "/></g></g></g><g fill="#000000" fill-opacity="1"><g transform="translate(162.867499, 263.178909)"><g><path d="M 6.53125 0 L 7.578125 0 L 4.3125 -9 L 3.25 -9 L 0 0 L 1.046875 0 L 1.78125 -2.09375 L 5.796875 -2.09375 Z M 2.09375 -3.015625 L 3.796875 -7.859375 L 5.46875 -3.015625 Z M 2.09375 -3.015625 "/></g></g></g><g fill="#000000" fill-opacity="1"><g transform="translate(174.462566, 263.178909)"><g><path d="M 2.0625 -0.953125 L 2.0625 -9 L 1.09375 -9 L 1.09375 0 L 5.40625 0 L 5.40625 -0.953125 Z M 2.0625 -0.953125 "/></g></g></g><g fill="#000000" fill-opacity="1"><g transform="translate(184.017632, 263.178909)"><g/></g></g><g fill="#000000" fill-opacity="1"><g transform="translate(191.652701, 263.178909)"><g><path d="M 3.359375 0.125 C 4.890625 0.125 6.140625 -0.796875 6.140625 -2.375 C 6.140625 -5.4375 1.75 -4.6875 1.75 -6.828125 C 1.75 -7.71875 2.484375 -8.15625 3.328125 -8.15625 C 4.015625 -8.15625 4.59375 -7.875 4.953125 -7.359375 L 5.703125 -8 C 5.203125 -8.625 4.328125 -9.125 3.296875 -9.125 C 1.921875 -9.125 0.796875 -8.21875 0.796875 -6.75 C 0.796875 -3.859375 5.171875 -4.578125 5.171875 -2.34375 C 5.171875 -1.375 4.375 -0.84375 3.375 -0.84375 C 2.359375 -0.84375 1.625 -1.390625 1.3125 -2.21875 L 0.4375 -1.703125 C 0.90625 -0.59375 2.03125 0.125 3.359375 0.125 Z M 3.359375 0.125 "/></g></g></g><g fill="#000000" fill-opacity="1"><g transform="translate(202.242771, 263.178909)"><g><path d="M 6.09375 -8.0625 L 6.09375 -9 L 1.171875 -9 L 1.171875 0 L 6.09375 0 L 6.09375 -0.9375 L 2.125 -0.9375 L 2.125 -4.03125 L 5.578125 -4.03125 L 5.578125 -4.96875 L 2.125 -4.96875 L 2.125 -8.0625 Z M 6.09375 -8.0625 "/></g></g></g><g fill="#000000" fill-opacity="1"><g transform="translate(213.252839, 263.178909)"><g><path d="M 4.734375 -4.109375 C 5.921875 -4.28125 6.828125 -5.265625 6.828125 -6.484375 C 6.828125 -7.890625 5.703125 -9 4.3125 -9 L 1.09375 -9 L 1.09375 0 L 2.0625 0 L 2.0625 -4.0625 L 3.75 -4.0625 L 6.296875 0 L 7.390625 0 Z M 2.0625 -4.984375 L 2.0625 -8.046875 L 4.265625 -8.046875 C 5.15625 -8.046875 5.859375 -7.40625 5.859375 -6.515625 C 5.859375 -5.59375 5.171875 -4.984375 4.265625 -4.984375 Z M 2.0625 -4.984375 "/></g></g></g><g fill="#000000" fill-opacity="1"><g transform="translate(224.802902, 263.178909)"><g><path d="M 6.53125 -9 L 3.796875 -1.234375 L 1.0625 -9 L 0 -9 L 3.25 0 L 4.3125 0 L 7.578125 -9 Z M 6.53125 -9 "/></g></g></g><g fill="#000000" fill-opacity="1"><g transform="translate(236.397964, 263.178909)"><g><path d="M 1.171875 0 L 2.125 0 L 2.125 -9 L 1.171875 -9 Z M 1.171875 0 "/></g></g></g><g fill="#000000" fill-opacity="1"><g transform="translate(243.703025, 263.178909)"><g><path d="M 5.359375 0.125 C 7.078125 0.125 8.578125 -0.828125 9.375 -2.21875 L 8.546875 -2.6875 C 7.9375 -1.578125 6.734375 -0.84375 5.359375 -0.84375 C 3.328125 -0.84375 1.6875 -2.453125 1.6875 -4.5 C 1.6875 -6.546875 3.328125 -8.15625 5.359375 -8.15625 C 6.734375 -8.15625 7.9375 -7.421875 8.546875 -6.3125 L 9.375 -6.78125 C 8.578125 -8.171875 7.078125 -9.125 5.359375 -9.125 C 2.8125 -9.125 0.734375 -7.046875 0.734375 -4.5 C 0.734375 -1.953125 2.8125 0.125 5.359375 0.125 Z M 5.359375 0.125 "/></g></g></g><g fill="#000000" fill-opacity="1"><g transform="translate(257.593085, 263.178909)"><g><path d="M 6.09375 -8.0625 L 6.09375 -9 L 1.171875 -9 L 1.171875 0 L 6.09375 0 L 6.09375 -0.9375 L 2.125 -0.9375 L 2.125 -4.03125 L 5.578125 -4.03125 L 5.578125 -4.96875 L 2.125 -4.96875 L 2.125 -8.0625 Z M 6.09375 -8.0625 "/></g></g></g></svg>