<?xml version="1.0" encoding="utf-8"?>
<!-- Generator: Adobe Illustrator 17.1.0, SVG Export Plug-In . SVG Version: 6.00 Build 0)  -->
<!DOCTYPE svg PUBLIC "-//W3C//DTD SVG 1.1//EN" "http://www.w3.org/Graphics/SVG/1.1/DTD/svg11.dtd">
<svg version="1.1" id="Layer_1" xmlns="http://www.w3.org/2000/svg" xmlns:xlink="http://www.w3.org/1999/xlink" x="0px" y="0px"
	 viewBox="0 0 500 500" enable-background="new 0 0 500 500" xml:space="preserve">
<circle fill="#E8CFC1" cx="254.2" cy="250" r="147"/>
<g>
	<defs>
		<rect id="SVGID_1_" x="159.1" y="186.7" width="91.6" height="80"/>
	</defs>
	<clipPath id="SVGID_2_">
		<use xlink:href="#SVGID_1_"  overflow="visible"/>
	</clipPath>
	<g clip-path="url(#SVGID_2_)">
		<path fill="#CE6857" d="M220.3,243.6v11.1l-50.1-23.3v-9l50.1-23.3v11.1l-37.9,16.6v0.2L220.3,243.6z M250.1,186.8h-83.8
			c-4,0-7.2,3.2-7.2,7.2v65.8c0,4,3.2,7.2,7.2,7.2h60.6L250.1,186.8"/>
	</g>
</g>
<g>
	<defs>
		<rect id="SVGID_3_" x="249.3" y="144.7" width="91.7" height="80.6"/>
	</defs>
	<clipPath id="SVGID_4_">
		<use xlink:href="#SVGID_3_"  overflow="visible"/>
	</clipPath>
	<g clip-path="url(#SVGID_4_)">
		<path fill="#523E27" d="M329.8,189.6l-50.1,23v-11.1l38.7-16.6v-0.2l-38.7-16.6V157l50.1,23V189.6z M273.3,144.7l-23.3,80.2h83.7
			c4,0,7.2-3.2,7.2-7.2v-65.8c0-4-3.2-7.2-7.2-7.2H273.3"/>
	</g>
</g>
<g>
	<g transform="translate(104.573552, 237.534858)">
		<g>
			<path fill="#523E27" d="M36,53.1l9,16.2v9.9h3.4V68.9l9.2-15.9h-2l-8,13.8h-0.1l-7.6-13.8H36z"/>
		</g>
	</g>
</g>
<g>
	<g transform="translate(121.343106, 237.534858)">
		<g>
			<path fill="#523E27" d="M60,70.7v-0.8c0-1.7-0.2-3.1-0.7-4.3c-0.5-1.2-1.1-2.2-1.9-3c-0.8-0.8-1.7-1.4-2.8-1.8
				c-1.1-0.4-2.2-0.6-3.4-0.6c-1.3,0-2.4,0.2-3.5,0.7c-1.1,0.4-2,1.1-2.8,1.9c-0.8,0.8-1.4,1.8-1.9,3c-0.4,1.2-0.7,2.5-0.7,4
				c0,1.2,0.2,2.4,0.6,3.6c0.4,1.2,1,2.2,1.8,3.2c0.8,0.9,1.8,1.7,3,2.3c1.2,0.6,2.6,0.8,4.3,0.8c1.6,0,3.1-0.3,4.4-0.8
				c1.3-0.6,2.5-1.4,3.5-2.4l-1.2-1.2c-0.5,0.5-1,0.9-1.5,1.3c-0.5,0.4-0.9,0.7-1.4,0.9c-0.5,0.3-1,0.4-1.5,0.6
				c-0.5,0.1-1.1,0.2-1.7,0.2c-0.7,0-1.4-0.1-2.2-0.3c-0.8-0.2-1.5-0.6-2.2-1.1c-0.7-0.5-1.2-1.3-1.7-2.3c-0.4-1-0.7-2.2-0.7-3.8H60
				z M45.8,69.2c0-1,0.1-2,0.3-2.9c0.2-0.9,0.5-1.8,1-2.5c0.4-0.7,1-1.3,1.6-1.7c0.7-0.4,1.5-0.7,2.4-0.7c1.8,0,3.2,0.7,4.1,2.1
				c1,1.4,1.5,3.3,1.5,5.7H45.8z"/>
		</g>
	</g>
</g>
<g>
	<g transform="translate(136.2929, 237.534858)">
		<g>
			<path fill="#523E27" d="M55.3,60.1c1.8,0,3.2,0.3,4.2,0.8c1,0.5,1.7,1.2,2.2,2c0.5,0.8,0.7,1.8,0.8,2.8c0.1,1.1,0.1,2.2,0.1,3.3
				v10.2h-3v-1.8c-0.7,0.7-1.6,1.3-2.8,1.7c-1.1,0.4-2.2,0.6-3.4,0.6c-1.1,0-2-0.2-2.8-0.6c-0.8-0.4-1.5-0.9-2.1-1.5
				c-0.5-0.6-1-1.3-1.2-2c-0.3-0.8-0.4-1.5-0.4-2.3c0-0.8,0.1-1.6,0.4-2.4c0.3-0.8,0.8-1.5,1.4-2.1c0.6-0.6,1.3-1.2,2.2-1.5
				c0.9-0.4,1.9-0.6,3-0.6c1.1,0,2.2,0.2,3.2,0.7c1,0.4,1.8,1,2.5,1.8v-1.6c0-2-0.3-3.6-0.9-4.5c-0.6-1-1.7-1.5-3.3-1.5
				c-0.7,0-1.3,0.1-1.8,0.3c-0.5,0.2-1,0.4-1.4,0.7c-0.4,0.3-0.8,0.7-1.1,1.2c-0.3,0.5-0.7,1-1,1.5L48,63.2c0.3-0.4,0.7-0.8,1.1-1.1
				c0.4-0.4,0.9-0.7,1.4-1c0.6-0.3,1.2-0.5,2-0.7C53.2,60.2,54.2,60.1,55.3,60.1z M59.6,71.8c-0.1-0.3-0.3-0.6-0.5-1
				c-0.2-0.4-0.5-0.8-0.9-1.1c-0.4-0.4-0.8-0.7-1.4-1c-0.5-0.3-1.1-0.4-1.9-0.4c-0.7,0-1.4,0.1-2,0.4c-0.6,0.3-1.1,0.6-1.5,1.1
				c-0.4,0.5-0.7,1-0.9,1.6c-0.2,0.6-0.3,1.3-0.3,1.9c0,0.8,0.1,1.5,0.4,2.1c0.3,0.6,0.7,1.1,1.1,1.5c0.5,0.4,1,0.7,1.5,0.9
				c0.5,0.2,1.1,0.3,1.6,0.3c0.5,0,0.9-0.1,1.4-0.3c0.5-0.2,0.9-0.4,1.4-0.7c0.4-0.3,0.8-0.7,1.2-1.1c0.3-0.4,0.6-0.9,0.9-1.4V71.8z
				"/>
		</g>
	</g>
</g>
<g>
	<g transform="translate(150.290831, 237.534858)">
		<g>
			<path fill="#523E27" d="M65,64.8c0-0.7-0.2-1.3-0.5-1.9c-0.3-0.6-0.8-1.1-1.4-1.5c-0.6-0.4-1.3-0.7-2.1-1
				c-0.8-0.2-1.7-0.4-2.6-0.4c-0.9,0-1.7,0.1-2.4,0.4c-0.8,0.2-1.4,0.6-2,1c-0.6,0.4-1,1-1.3,1.7c-0.3,0.7-0.5,1.4-0.5,2.3
				c0,1.2,0.3,2.1,0.8,2.8c0.6,0.7,1.2,1.3,2.1,1.7c0.8,0.4,1.7,0.8,2.7,1c1,0.3,1.8,0.6,2.7,0.9c0.8,0.3,1.5,0.7,2,1.2
				c0.6,0.5,0.8,1.1,0.8,1.9c0,0.3-0.1,0.7-0.2,1.1c-0.1,0.4-0.3,0.7-0.6,1c-0.3,0.3-0.7,0.6-1.2,0.8c-0.5,0.2-1.2,0.3-2,0.3
				c-1,0-1.8-0.2-2.5-0.5C56,77.4,55.4,77,55,76.6c-0.4-0.4-0.7-0.9-0.9-1.3c-0.2-0.4-0.3-0.8-0.3-1.1h-2.4c0,0.7,0.2,1.4,0.5,2
				c0.3,0.7,0.8,1.2,1.5,1.8c0.7,0.5,1.5,1,2.4,1.3c1,0.3,2.1,0.5,3.3,0.5c2.3,0,4-0.5,5.2-1.5c1.2-1,1.8-2.3,1.8-4
				c0-1.2-0.3-2.2-0.9-2.9c-0.6-0.7-1.3-1.3-2.1-1.7c-0.8-0.4-1.8-0.8-2.8-1.1c-1-0.3-1.9-0.6-2.7-0.9c-0.8-0.3-1.6-0.7-2.1-1.1
				c-0.6-0.4-0.8-1-0.8-1.8c0-0.3,0.1-0.7,0.2-1c0.1-0.4,0.3-0.7,0.6-1c0.3-0.3,0.7-0.6,1.2-0.8s1.1-0.3,1.9-0.3
				c0.8,0,1.4,0.1,1.9,0.3c0.6,0.2,1,0.5,1.4,0.8c0.4,0.3,0.6,0.6,0.8,1c0.2,0.4,0.3,0.7,0.3,1H65z"/>
		</g>
	</g>
</g>
<g>
	<g transform="translate(162.608988, 237.534858)">
		<g>
			<path fill="#523E27" d="M58.4,60.5v18.7h3.2V60.5H58.4z M57.9,54.6c0,0.5,0.2,1,0.6,1.4c0.4,0.4,0.9,0.6,1.4,0.6
				c0.5,0,1-0.2,1.4-0.6c0.4-0.4,0.6-0.9,0.6-1.4c0-0.6-0.2-1-0.6-1.4c-0.4-0.4-0.9-0.6-1.4-0.6c-0.5,0-1,0.2-1.4,0.6
				C58.1,53.6,57.9,54.1,57.9,54.6z"/>
		</g>
	</g>
</g>
<g>
	<g transform="translate(170.111803, 237.534858)">
		<g>
			<path fill="#523E27" d="M75.3,79.2V67.1c0-0.4,0-1.1-0.1-1.8c-0.1-0.8-0.3-1.6-0.7-2.3c-0.4-0.8-1.1-1.4-2-2
				c-0.9-0.6-2.2-0.9-3.8-0.9c-0.7,0-1.5,0.1-2.4,0.4c-0.9,0.3-1.8,0.9-2.6,1.8L63,62.9h-0.1v-2.4h-3.2v18.7h3.2V67.6
				c0-1,0.1-1.8,0.4-2.5c0.3-0.7,0.7-1.3,1.1-1.8c0.5-0.5,1-0.8,1.6-1c0.6-0.2,1.2-0.3,1.9-0.3c1,0,1.8,0.2,2.4,0.6
				c0.6,0.4,1,0.9,1.3,1.4c0.3,0.5,0.4,1.1,0.5,1.6c0.1,0.5,0.1,0.9,0.1,1.2v12.3H75.3z"/>
		</g>
	</g>
</g>
<g>
	<g transform="translate(185.257576, 237.534858)">
	</g>
</g>
<g>
	<g transform="translate(193.936225, 237.534858)">
		<g>
			<path fill="#523E27" d="M83.6,71.5l3.6,7.7h3.6L78.7,53.1h-1.9l-11,26.1h1.7l3.3-7.7H83.6z M82.9,69.8H71.5l5.4-12.6H77
				L82.9,69.8z"/>
		</g>
	</g>
</g>
<g>
	<g transform="translate(213.309424, 237.534858)">
		<g>
			<path fill="#523E27" d="M74.1,60.5v18.7h3.2V67.9c0-1,0.1-1.9,0.4-2.6c0.2-0.7,0.5-1.3,0.9-1.7c0.4-0.4,0.8-0.8,1.2-1
				c0.5-0.2,0.9-0.3,1.3-0.3c0.6,0,1.1,0.2,1.6,0.6c0.5,0.4,0.8,0.7,1.1,1l1.3-2.3c-0.2-0.3-0.5-0.6-0.8-0.8
				c-0.3-0.2-0.6-0.3-0.9-0.5c-0.3-0.1-0.6-0.2-0.9-0.2c-0.3,0-0.5-0.1-0.6-0.1c-1,0-1.9,0.3-2.6,0.9c-0.7,0.6-1.3,1.4-1.7,2.5h-0.2
				v-3H74.1z"/>
		</g>
	</g>
</g>
<g>
	<g transform="translate(222.883951, 237.534858)">
		<g>
			<path fill="#523E27" d="M84.1,60.1c1.8,0,3.2,0.3,4.2,0.8c1,0.5,1.7,1.2,2.2,2c0.5,0.8,0.7,1.8,0.8,2.8c0.1,1.1,0.1,2.2,0.1,3.3
				v10.2h-3v-1.8c-0.7,0.7-1.6,1.3-2.8,1.7c-1.1,0.4-2.2,0.6-3.4,0.6c-1.1,0-2-0.2-2.8-0.6c-0.8-0.4-1.5-0.9-2.1-1.5
				c-0.5-0.6-1-1.3-1.2-2c-0.3-0.8-0.4-1.5-0.4-2.3c0-0.8,0.1-1.6,0.4-2.4c0.3-0.8,0.8-1.5,1.4-2.1c0.6-0.6,1.3-1.2,2.2-1.5
				c0.9-0.4,1.9-0.6,3-0.6c1.1,0,2.2,0.2,3.2,0.7c1,0.4,1.8,1,2.5,1.8v-1.6c0-2-0.3-3.6-0.9-4.5c-0.6-1-1.7-1.5-3.3-1.5
				c-0.7,0-1.3,0.1-1.8,0.3c-0.5,0.2-1,0.4-1.4,0.7c-0.4,0.3-0.8,0.7-1.1,1.2c-0.3,0.5-0.7,1-1,1.5l-1.9-1.9
				c0.3-0.4,0.7-0.8,1.1-1.1c0.4-0.4,0.9-0.7,1.4-1c0.6-0.3,1.2-0.5,2-0.7C82.1,60.2,83,60.1,84.1,60.1z M88.4,71.8
				c-0.1-0.3-0.3-0.6-0.5-1c-0.2-0.4-0.5-0.8-0.9-1.1c-0.4-0.4-0.8-0.7-1.4-1c-0.5-0.3-1.1-0.4-1.9-0.4c-0.7,0-1.4,0.1-2,0.4
				c-0.6,0.3-1.1,0.6-1.5,1.1c-0.4,0.5-0.7,1-0.9,1.6C79.1,72,79,72.7,79,73.3c0,0.8,0.1,1.5,0.4,2.1c0.3,0.6,0.7,1.1,1.1,1.5
				c0.5,0.4,1,0.7,1.5,0.9c0.5,0.2,1.1,0.3,1.6,0.3c0.5,0,0.9-0.1,1.4-0.3c0.5-0.2,0.9-0.4,1.4-0.7c0.4-0.3,0.8-0.7,1.2-1.1
				c0.3-0.4,0.6-0.9,0.9-1.4V71.8z"/>
		</g>
	</g>
</g>
<g>
	<g transform="translate(236.881883, 237.534858)">
		<g>
			<path fill="#523E27" d="M80.1,60.5V62h3.3v17.2h3.2V62H91v-1.5h-4.5v-3.1c0-0.3,0-0.6,0-1c0-0.4,0.1-0.8,0.2-1.2
				c0.1-0.4,0.3-0.7,0.6-0.9c0.3-0.3,0.6-0.4,1.1-0.4c0.6,0,1.1,0.3,1.5,0.8c0.4,0.5,0.7,1,1,1.5l1.6-1.8c-0.6-0.6-1.2-1-1.9-1.3
				c-0.6-0.3-1.3-0.5-2.1-0.5c-0.7,0-1.3,0.1-1.9,0.3c-0.6,0.2-1.2,0.6-1.6,1c-0.5,0.5-0.9,1.1-1.2,1.8c-0.3,0.7-0.4,1.6-0.4,2.5
				v2.3H80.1z"/>
		</g>
	</g>
</g>
<g>
	<g transform="translate(245.924488, 237.534858)">
		<g>
			<path fill="#523E27" d="M91.8,60.1c1.8,0,3.2,0.3,4.2,0.8c1,0.5,1.7,1.2,2.2,2c0.5,0.8,0.7,1.8,0.8,2.8c0.1,1.1,0.1,2.2,0.1,3.3
				v10.2h-3v-1.8c-0.7,0.7-1.6,1.3-2.8,1.7c-1.1,0.4-2.2,0.6-3.4,0.6c-1.1,0-2-0.2-2.8-0.6c-0.8-0.4-1.5-0.9-2.1-1.5
				c-0.5-0.6-1-1.3-1.2-2c-0.3-0.8-0.4-1.5-0.4-2.3c0-0.8,0.1-1.6,0.4-2.4c0.3-0.8,0.8-1.5,1.4-2.1c0.6-0.6,1.3-1.2,2.2-1.5
				c0.9-0.4,1.9-0.6,3-0.6c1.1,0,2.2,0.2,3.2,0.7c1,0.4,1.8,1,2.5,1.8v-1.6c0-2-0.3-3.6-0.9-4.5c-0.6-1-1.7-1.5-3.3-1.5
				c-0.7,0-1.3,0.1-1.8,0.3c-0.5,0.2-1,0.4-1.4,0.7c-0.4,0.3-0.8,0.7-1.1,1.2c-0.3,0.5-0.7,1-1,1.5l-1.9-1.9
				c0.3-0.4,0.7-0.8,1.1-1.1c0.4-0.4,0.9-0.7,1.4-1c0.6-0.3,1.2-0.5,2-0.7C89.8,60.2,90.7,60.1,91.8,60.1z M96.1,71.8
				c-0.1-0.3-0.3-0.6-0.5-1c-0.2-0.4-0.5-0.8-0.9-1.1c-0.4-0.4-0.8-0.7-1.4-1c-0.5-0.3-1.1-0.4-1.9-0.4c-0.7,0-1.4,0.1-2,0.4
				c-0.6,0.3-1.1,0.6-1.5,1.1c-0.4,0.5-0.7,1-0.9,1.6c-0.2,0.6-0.3,1.3-0.3,1.9c0,0.8,0.1,1.5,0.4,2.1c0.3,0.6,0.7,1.1,1.1,1.5
				c0.5,0.4,1,0.7,1.5,0.9c0.5,0.2,1.1,0.3,1.6,0.3c0.5,0,0.9-0.1,1.4-0.3c0.5-0.2,0.9-0.4,1.4-0.7c0.4-0.3,0.8-0.7,1.2-1.1
				c0.3-0.4,0.6-0.9,0.9-1.4V71.8z"/>
		</g>
	</g>
</g>
<g>
	<g transform="translate(259.92242, 237.534858)">
		<g>
			<path fill="#523E27" d="M87.8,62v-1.5H91v-5.8h3.2v5.8h4.5V62h-4.5v12.4c0,0.3,0,0.6,0,1c0,0.4,0.1,0.8,0.2,1.1
				c0.1,0.3,0.3,0.6,0.6,0.8c0.3,0.2,0.6,0.3,1.1,0.3c0.6,0,1.1-0.2,1.5-0.7c0.4-0.4,0.7-0.9,1-1.5l1.8,1.8
				c-1.2,1.2-2.6,1.8-4.1,1.8c-0.7,0-1.3-0.1-1.9-0.3c-0.6-0.2-1.2-0.6-1.6-1c-0.5-0.5-0.9-1.1-1.2-1.8c-0.3-0.7-0.4-1.6-0.4-2.5V62
				H87.8z"/>
		</g>
	</g>
</g>
<g>
	<g transform="translate(136.632594, 263.17888)">
		<g>
			<path fill="#523E27" d="M46.5,87.7v-0.2c0.1,0,0.2,0,0.2-0.1c0.1-0.1,0.1-0.1,0.2-0.2c0-0.1,0.1-0.2,0.1-0.3c0-0.1,0-0.2,0-0.3
				v-4.4c0-0.2,0-0.4-0.1-0.5c-0.1-0.2-0.2-0.3-0.5-0.3v-0.1l1.6-0.5v5.9c0,0.1,0,0.2,0,0.3c0,0.1,0.1,0.2,0.1,0.3
				c0,0.1,0.1,0.2,0.1,0.2c0.1,0.1,0.1,0.1,0.2,0.1v0.2H46.5z M46.6,79.3c0-0.2,0.1-0.4,0.2-0.5c0.2-0.2,0.3-0.2,0.5-0.2
				c0.2,0,0.4,0.1,0.5,0.2c0.2,0.1,0.2,0.3,0.2,0.5c0,0.2-0.1,0.4-0.2,0.5C47.7,80,47.5,80,47.3,80c-0.2,0-0.4-0.1-0.5-0.2
				C46.6,79.7,46.6,79.5,46.6,79.3z"/>
		</g>
	</g>
</g>
<g>
	<g transform="translate(139.644599, 263.17888)">
		<g>
			<path fill="#523E27" d="M53.7,86.7c0,0.1,0,0.2,0,0.3c0,0.1,0.1,0.2,0.1,0.3c0.1,0.1,0.1,0.2,0.2,0.2c0.1,0.1,0.1,0.1,0.2,0.1
				v0.2h-2.1v-0.2c0.1,0,0.1,0,0.2-0.1c0.1-0.1,0.1-0.1,0.2-0.2c0.1-0.1,0.1-0.2,0.1-0.3c0-0.1,0-0.2,0-0.3v-3c0-0.4-0.1-0.7-0.2-1
				c-0.1-0.3-0.2-0.5-0.4-0.7c-0.2-0.2-0.4-0.3-0.6-0.4c-0.2-0.1-0.5-0.1-0.7-0.1c-0.2,0-0.5,0.1-0.7,0.1c-0.2,0.1-0.4,0.2-0.6,0.4
				c-0.2,0.2-0.3,0.3-0.4,0.5c-0.1,0.2-0.2,0.4-0.2,0.6v3.5c0,0.1,0,0.2,0,0.3c0,0.1,0.1,0.2,0.1,0.3c0.1,0.1,0.1,0.2,0.2,0.2
				c0.1,0.1,0.1,0.1,0.2,0.1v0.2h-2.1v-0.2c0.1,0,0.2,0,0.2-0.1c0.1-0.1,0.1-0.1,0.2-0.2c0.1-0.1,0.1-0.2,0.1-0.3c0-0.1,0-0.2,0-0.3
				v-4.4c0-0.2,0-0.4-0.1-0.5c-0.1-0.2-0.2-0.3-0.5-0.3v-0.1l1.6-0.5v0.9c0.1-0.1,0.2-0.2,0.3-0.3c0.1-0.1,0.3-0.2,0.4-0.3
				c0.2-0.1,0.4-0.2,0.6-0.2c0.2-0.1,0.5-0.1,0.8-0.1c0.5,0,0.9,0.1,1.3,0.3c0.3,0.2,0.6,0.4,0.9,0.7c0.2,0.3,0.4,0.6,0.5,0.9
				c0.1,0.3,0.1,0.6,0.1,0.9V86.7z"/>
		</g>
	</g>
</g>
<g>
	<g transform="translate(146.028616, 263.17888)">
		<g>
			<path fill="#523E27" d="M55.9,81v0.2c-0.1,0-0.2,0-0.2,0.1c-0.1,0.1-0.1,0.1-0.2,0.2c-0.1,0.1-0.1,0.2-0.2,0.3
				c-0.1,0.1-0.1,0.2-0.1,0.3l-2.8,6l-2.7-6c-0.1-0.2-0.2-0.4-0.3-0.5c-0.1-0.2-0.3-0.3-0.5-0.3V81h2.2v0.2c-0.1,0-0.2,0-0.3,0.1
				c-0.1,0.1-0.1,0.1-0.1,0.3c0,0.1,0,0.2,0.1,0.4l1.8,4.1l2-4.3c0-0.1,0.1-0.2,0.1-0.3c0-0.1-0.1-0.2-0.1-0.2
				c-0.1-0.1-0.2-0.1-0.2-0.1V81H55.9z"/>
		</g>
	</g>
</g>
<g>
	<g transform="translate(151.620623, 263.17888)">
		<g>
			<path fill="#523E27" d="M55.5,87.7v-0.8L55.4,87c-0.3,0.3-0.6,0.5-0.9,0.6c-0.3,0.1-0.8,0.2-1.3,0.2c-0.4,0-0.7,0-1-0.1
				c-0.3-0.1-0.5-0.2-0.7-0.4c-0.2-0.2-0.3-0.3-0.4-0.5c-0.1-0.2-0.1-0.4-0.1-0.6c0-0.4,0.1-0.7,0.3-1c0.2-0.3,0.5-0.5,0.9-0.7
				c0.4-0.2,0.8-0.4,1.4-0.6c0.5-0.2,1.2-0.4,1.9-0.5c0-0.4-0.1-0.8-0.3-1c-0.2-0.3-0.3-0.5-0.5-0.6c-0.2-0.1-0.4-0.2-0.6-0.3
				c-0.2-0.1-0.4-0.1-0.6-0.1c-0.3,0-0.5,0-0.7,0.1c-0.2,0.1-0.4,0.2-0.5,0.3c-0.2,0.1-0.3,0.3-0.4,0.4c-0.1,0.2-0.2,0.3-0.3,0.4
				h-0.1v-1.2c0.1,0,0.2,0,0.2-0.1c0.1-0.1,0.2-0.1,0.3-0.1c0.2-0.1,0.4-0.1,0.6-0.3c0.3-0.1,0.7-0.2,1.2-0.2c0.6,0,1.1,0.1,1.4,0.2
				c0.4,0.2,0.6,0.4,0.8,0.6c0.2,0.2,0.3,0.5,0.4,0.8c0.1,0.3,0.1,0.6,0.1,1v3.2c0,0.2,0,0.4,0.1,0.6c0.1,0.2,0.2,0.3,0.4,0.3v0.2
				H55.5z M55.5,86.2v-2.3l-0.1,0c-0.3,0.1-0.6,0.1-1,0.3c-0.4,0.1-0.7,0.3-1,0.4c-0.3,0.2-0.6,0.4-0.8,0.6
				c-0.2,0.2-0.4,0.5-0.4,0.8c0,0.3,0.1,0.6,0.4,0.9c0.3,0.2,0.6,0.3,1.1,0.3c0.3,0,0.7-0.1,0.9-0.2c0.3-0.2,0.5-0.4,0.8-0.6
				L55.5,86.2z"/>
		</g>
	</g>
</g>
<g>
	<g transform="translate(157.104631, 263.17888)">
		<g>
			<path fill="#523E27" d="M54.7,81.6v3.9c0,0.3,0,0.5,0,0.8c0,0.2,0,0.4,0.1,0.6c0.1,0.1,0.1,0.3,0.2,0.3c0.1,0.1,0.2,0.1,0.4,0.1
				c0.2,0,0.4-0.1,0.6-0.3c0.2-0.2,0.3-0.5,0.4-0.8h0.1v1.2c-0.1,0-0.2,0-0.3,0.1c-0.1,0.1-0.2,0.2-0.4,0.3
				c-0.2,0.1-0.4,0.1-0.7,0.1c-0.4,0-0.7-0.1-0.9-0.2c-0.2-0.2-0.4-0.3-0.5-0.6c-0.1-0.3-0.2-0.5-0.2-0.8c0-0.3,0-0.6,0-0.9v-3.6
				h-0.9V81h0.9v-1.4c0-0.2,0-0.3-0.1-0.5c0-0.2-0.2-0.2-0.5-0.3v-0.2l1.6-0.5V81h1.8v0.6H54.7z"/>
		</g>
	</g>
</g>
<g>
	<g transform="translate(160.52464, 263.17888)">
		<g>
			<path fill="#523E27" d="M54.4,87.7v-0.2c0.1,0,0.2,0,0.2-0.1c0.1-0.1,0.1-0.1,0.2-0.2c0-0.1,0.1-0.2,0.1-0.3c0-0.1,0-0.2,0-0.3
				v-4.4c0-0.2,0-0.4-0.1-0.5c-0.1-0.2-0.2-0.3-0.5-0.3v-0.1l1.6-0.5v5.9c0,0.1,0,0.2,0,0.3c0,0.1,0.1,0.2,0.1,0.3
				c0,0.1,0.1,0.2,0.1,0.2c0.1,0.1,0.1,0.1,0.2,0.1v0.2H54.4z M54.5,79.3c0-0.2,0.1-0.4,0.2-0.5c0.2-0.2,0.3-0.2,0.5-0.2
				c0.2,0,0.4,0.1,0.5,0.2c0.2,0.1,0.2,0.3,0.2,0.5c0,0.2-0.1,0.4-0.2,0.5C55.7,80,55.5,80,55.3,80c-0.2,0-0.4-0.1-0.5-0.2
				C54.6,79.7,54.5,79.5,54.5,79.3z"/>
		</g>
	</g>
</g>
<g>
	<g transform="translate(163.536645, 263.17888)">
		<g>
			<path fill="#523E27" d="M58.6,87.8c-0.5,0-1-0.1-1.5-0.3c-0.4-0.2-0.8-0.4-1.1-0.7c-0.3-0.3-0.5-0.7-0.7-1.1
				c-0.2-0.4-0.3-0.9-0.3-1.4c0-0.5,0.1-1,0.3-1.4c0.2-0.4,0.4-0.8,0.8-1.1c0.3-0.3,0.7-0.5,1.1-0.7c0.4-0.2,0.9-0.3,1.4-0.3
				c0.5,0,1,0.1,1.4,0.3c0.4,0.2,0.8,0.4,1.1,0.7c0.3,0.3,0.5,0.6,0.7,1.1c0.2,0.4,0.3,0.8,0.3,1.3c0,0.5-0.1,0.9-0.2,1.4
				c-0.2,0.4-0.4,0.8-0.7,1.1c-0.3,0.3-0.7,0.6-1.1,0.8C59.7,87.7,59.2,87.8,58.6,87.8z M58.5,81.4c-0.4,0-0.7,0.1-1,0.3
				c-0.3,0.2-0.5,0.4-0.7,0.6c-0.2,0.3-0.3,0.5-0.5,0.9c-0.1,0.3-0.1,0.7-0.1,1c0,0.4,0.1,0.8,0.2,1.1c0.1,0.4,0.3,0.7,0.5,1
				c0.2,0.3,0.5,0.5,0.8,0.7c0.3,0.2,0.7,0.3,1.1,0.3c0.4,0,0.7-0.1,1-0.3c0.3-0.2,0.6-0.4,0.8-0.7c0.2-0.3,0.4-0.6,0.5-0.9
				c0.1-0.3,0.1-0.7,0.1-1c0-0.4-0.1-0.7-0.2-1.1c-0.1-0.4-0.3-0.7-0.5-1c-0.2-0.3-0.5-0.5-0.9-0.7C59.3,81.5,58.9,81.4,58.5,81.4z"
				/>
		</g>
	</g>
</g>
<g>
	<g transform="translate(169.812653, 263.17888)">
		<g>
			<path fill="#523E27" d="M63.8,86.7c0,0.1,0,0.2,0,0.3c0,0.1,0.1,0.2,0.1,0.3c0.1,0.1,0.1,0.2,0.2,0.2c0.1,0.1,0.1,0.1,0.2,0.1
				v0.2h-2.1v-0.2c0.1,0,0.1,0,0.2-0.1c0.1-0.1,0.1-0.1,0.2-0.2c0.1-0.1,0.1-0.2,0.1-0.3c0-0.1,0-0.2,0-0.3v-3c0-0.4-0.1-0.7-0.2-1
				c-0.1-0.3-0.2-0.5-0.4-0.7c-0.2-0.2-0.4-0.3-0.6-0.4c-0.2-0.1-0.5-0.1-0.7-0.1c-0.2,0-0.5,0.1-0.7,0.1c-0.2,0.1-0.4,0.2-0.6,0.4
				c-0.2,0.2-0.3,0.3-0.4,0.5c-0.1,0.2-0.2,0.4-0.2,0.6v3.5c0,0.1,0,0.2,0,0.3c0,0.1,0.1,0.2,0.1,0.3c0.1,0.1,0.1,0.2,0.2,0.2
				c0.1,0.1,0.1,0.1,0.2,0.1v0.2h-2.1v-0.2c0.1,0,0.2,0,0.2-0.1c0.1-0.1,0.1-0.1,0.2-0.2c0.1-0.1,0.1-0.2,0.1-0.3c0-0.1,0-0.2,0-0.3
				v-4.4c0-0.2,0-0.4-0.1-0.5c-0.1-0.2-0.2-0.3-0.5-0.3v-0.1l1.6-0.5v0.9c0.1-0.1,0.2-0.2,0.3-0.3c0.1-0.1,0.3-0.2,0.4-0.3
				c0.2-0.1,0.4-0.2,0.6-0.2c0.2-0.1,0.5-0.1,0.8-0.1c0.5,0,0.9,0.1,1.3,0.3c0.3,0.2,0.6,0.4,0.9,0.7c0.2,0.3,0.4,0.6,0.5,0.9
				c0.1,0.3,0.1,0.6,0.1,0.9V86.7z"/>
		</g>
	</g>
</g>
<g>
	<g transform="translate(176.196671, 263.17888)">
	</g>
</g>
<g>
	<g transform="translate(179.316673, 263.17888)">
		<g>
			<path fill="#523E27" d="M60.7,87.7v-0.2c0.1,0,0.2,0,0.2-0.1c0.1-0.1,0.1-0.1,0.2-0.2c0-0.1,0.1-0.2,0.1-0.3c0-0.1,0-0.2,0-0.3
				v-4.4c0-0.2,0-0.4-0.1-0.5c-0.1-0.2-0.2-0.3-0.5-0.3v-0.1l1.6-0.5v5.9c0,0.1,0,0.2,0,0.3c0,0.1,0.1,0.2,0.1,0.3
				c0,0.1,0.1,0.2,0.1,0.2c0.1,0.1,0.1,0.1,0.2,0.1v0.2H60.7z M60.8,79.3c0-0.2,0.1-0.4,0.2-0.5c0.2-0.2,0.3-0.2,0.5-0.2
				c0.2,0,0.4,0.1,0.5,0.2c0.2,0.1,0.2,0.3,0.2,0.5c0,0.2-0.1,0.4-0.2,0.5C61.9,80,61.8,80,61.5,80c-0.2,0-0.4-0.1-0.5-0.2
				C60.9,79.7,60.8,79.5,60.8,79.3z"/>
		</g>
	</g>
</g>
<g>
	<g transform="translate(182.328678, 263.17888)">
		<g>
			<path fill="#523E27" d="M66.7,85.9c0,0.3-0.1,0.5-0.2,0.8c-0.1,0.2-0.3,0.4-0.6,0.6c-0.2,0.2-0.5,0.3-0.8,0.4
				c-0.3,0.1-0.7,0.1-1,0.1c-0.5,0-0.8-0.1-1.1-0.2s-0.5-0.3-0.7-0.4c-0.1-0.1-0.3-0.2-0.4-0.2C61.7,87,61.6,87,61.4,87v-1.2h0.1
				c0,0.2,0.1,0.3,0.3,0.5c0.2,0.2,0.3,0.3,0.5,0.5c0.2,0.2,0.5,0.3,0.7,0.4c0.3,0.1,0.5,0.1,0.8,0.1c0.2,0,0.4,0,0.6-0.1
				c0.2,0,0.4-0.1,0.6-0.2c0.2-0.1,0.3-0.2,0.4-0.4c0.1-0.2,0.2-0.3,0.2-0.5c0-0.2-0.1-0.4-0.2-0.5c-0.1-0.2-0.3-0.3-0.4-0.4
				c-0.2-0.1-0.4-0.2-0.6-0.3c-0.2-0.1-0.5-0.2-0.7-0.3c-0.3-0.1-0.6-0.2-0.9-0.3c-0.3-0.1-0.5-0.2-0.8-0.4
				c-0.2-0.2-0.4-0.3-0.5-0.5c-0.1-0.2-0.2-0.5-0.2-0.8c0-0.2,0-0.5,0.1-0.7c0.1-0.2,0.3-0.4,0.5-0.6c0.2-0.2,0.5-0.3,0.8-0.4
				c0.3-0.1,0.7-0.2,1.2-0.2c0.4,0,0.7,0,1,0.1c0.2,0.1,0.4,0.1,0.6,0.2c0.1,0.1,0.2,0.1,0.3,0.1c0.1,0,0.2,0,0.3,0v1.1H66
				c-0.2-0.3-0.5-0.6-0.9-0.8c-0.4-0.2-0.8-0.3-1.2-0.3c-0.3,0-0.5,0-0.7,0.1c-0.2,0.1-0.4,0.2-0.5,0.3c-0.1,0.1-0.2,0.2-0.3,0.3
				c-0.1,0.1-0.1,0.3-0.1,0.4c0,0.2,0,0.3,0.1,0.5c0.1,0.1,0.3,0.2,0.4,0.3c0.2,0.1,0.4,0.2,0.6,0.3c0.2,0.1,0.4,0.2,0.7,0.3
				c0.3,0.1,0.6,0.2,0.9,0.3c0.3,0.1,0.6,0.3,0.8,0.4c0.2,0.2,0.4,0.3,0.6,0.6C66.6,85.3,66.7,85.6,66.7,85.9z"/>
		</g>
	</g>
</g>
<g>
	<g transform="translate(187.260692, 263.17888)">
	</g>
</g>
<g>
	<g transform="translate(190.380695, 263.17888)">
		<g>
			<path fill="#523E27" d="M65.8,81.6v3.9c0,0.3,0,0.5,0,0.8c0,0.2,0,0.4,0.1,0.6c0.1,0.1,0.1,0.3,0.2,0.3c0.1,0.1,0.2,0.1,0.4,0.1
				c0.2,0,0.4-0.1,0.6-0.3c0.2-0.2,0.3-0.5,0.4-0.8h0.1v1.2c-0.1,0-0.2,0-0.3,0.1c-0.1,0.1-0.2,0.2-0.4,0.3
				c-0.2,0.1-0.4,0.1-0.7,0.1c-0.4,0-0.7-0.1-0.9-0.2c-0.2-0.2-0.4-0.3-0.5-0.6c-0.1-0.3-0.2-0.5-0.2-0.8c0-0.3,0-0.6,0-0.9v-3.6
				h-0.9V81h0.9v-1.4c0-0.2,0-0.3-0.1-0.5c0-0.2-0.2-0.2-0.5-0.3v-0.2l1.6-0.5V81h1.8v0.6H65.8z"/>
		</g>
	</g>
</g>
<g>
	<g transform="translate(193.800704, 263.17888)">
		<g>
			<path fill="#523E27" d="M71.7,86.7c0,0.1,0,0.2,0,0.3c0,0.1,0.1,0.2,0.1,0.3c0.1,0.1,0.1,0.2,0.2,0.2c0.1,0.1,0.1,0.1,0.2,0.1
				v0.2h-2.1v-0.2c0.1,0,0.1,0,0.2-0.1c0.1-0.1,0.1-0.1,0.2-0.2c0.1-0.1,0.1-0.2,0.1-0.3c0-0.1,0-0.2,0-0.3v-3c0-0.4-0.1-0.7-0.2-1
				c-0.1-0.3-0.2-0.5-0.4-0.7c-0.2-0.2-0.4-0.3-0.6-0.4c-0.2-0.1-0.5-0.1-0.7-0.1c-0.2,0-0.5,0.1-0.7,0.1c-0.2,0.1-0.4,0.2-0.6,0.4
				c-0.2,0.2-0.3,0.4-0.4,0.6c-0.1,0.2-0.2,0.5-0.2,0.7v3.4c0,0.1,0,0.2,0,0.3c0,0.1,0.1,0.2,0.1,0.3c0.1,0.1,0.1,0.2,0.2,0.2
				c0.1,0.1,0.1,0.1,0.2,0.1v0.2h-2.1v-0.2c0.1,0,0.2,0,0.2-0.1c0.1-0.1,0.1-0.1,0.2-0.2c0.1-0.1,0.1-0.2,0.1-0.3c0-0.1,0-0.2,0-0.3
				v-8.2c0-0.2,0-0.3-0.1-0.5c-0.1-0.2-0.2-0.3-0.5-0.3v-0.2l1.6-0.5v4.6c0.1-0.1,0.2-0.2,0.3-0.3c0.1-0.1,0.3-0.2,0.4-0.3
				c0.2-0.1,0.4-0.2,0.6-0.2c0.2-0.1,0.5-0.1,0.8-0.1c0.5,0,0.9,0.1,1.3,0.3c0.3,0.2,0.6,0.4,0.9,0.7c0.2,0.3,0.4,0.6,0.5,0.9
				c0.1,0.3,0.1,0.6,0.1,0.9V86.7z"/>
		</g>
	</g>
</g>
<g>
	<g transform="translate(200.184722, 263.17888)">
		<g>
			<path fill="#523E27" d="M68.3,84.5c0,0.4,0.1,0.7,0.3,1.1c0.1,0.3,0.3,0.6,0.5,0.9c0.2,0.3,0.5,0.5,0.8,0.6
				c0.3,0.2,0.7,0.2,1.2,0.2c0.2,0,0.5,0,0.7-0.1c0.3-0.1,0.5-0.2,0.7-0.3c0.2-0.1,0.4-0.3,0.6-0.5c0.2-0.2,0.3-0.4,0.4-0.6h0.1V87
				c-0.1,0-0.1,0-0.2,0.1c-0.1,0-0.2,0.1-0.3,0.1c-0.2,0.1-0.5,0.3-0.9,0.4c-0.4,0.1-0.8,0.2-1.4,0.2c-0.5,0-0.9-0.1-1.4-0.2
				c-0.4-0.1-0.8-0.3-1.1-0.6c-0.3-0.3-0.6-0.7-0.8-1.1c-0.2-0.5-0.3-1-0.3-1.6c0-0.4,0.1-0.8,0.2-1.2c0.1-0.4,0.3-0.8,0.6-1.1
				c0.3-0.3,0.6-0.6,1-0.8c0.4-0.2,0.9-0.3,1.5-0.3c0.5,0,1,0.1,1.4,0.3c0.4,0.2,0.7,0.4,1,0.8c0.3,0.3,0.5,0.7,0.6,1.1
				c0.1,0.4,0.2,0.9,0.2,1.4H68.3z M70.6,81.4c-0.4,0-0.7,0.1-1,0.2c-0.3,0.2-0.5,0.3-0.7,0.6c-0.2,0.2-0.3,0.5-0.5,0.8
				c-0.1,0.3-0.2,0.6-0.2,0.9h4.6c0-0.3-0.1-0.6-0.2-0.9c-0.1-0.3-0.2-0.6-0.4-0.8c-0.2-0.2-0.4-0.4-0.7-0.6
				C71.3,81.5,71,81.4,70.6,81.4z"/>
		</g>
	</g>
</g>
<g>
	<g transform="translate(206.004729, 263.17888)">
	</g>
</g>
<g>
	<g transform="translate(209.124731, 263.17888)">
		<g>
			<path fill="#523E27" d="M71.9,81.6v5.1c0,0.1,0,0.2,0,0.3c0,0.1,0.1,0.2,0.1,0.3c0.1,0.1,0.1,0.2,0.2,0.2
				c0.1,0.1,0.1,0.1,0.2,0.1v0.2h-2.1v-0.2c0.1,0,0.1,0,0.2-0.1c0.1-0.1,0.1-0.1,0.2-0.2c0.1-0.1,0.1-0.2,0.1-0.3c0-0.1,0-0.2,0-0.3
				v-5.1h-0.8V81h0.8v-1.3c0-0.3,0-0.7,0-1c0-0.3,0.1-0.6,0.2-0.8c0.1-0.3,0.3-0.4,0.5-0.6c0.2-0.2,0.5-0.2,0.9-0.2
				c0.2,0,0.4,0,0.5,0.1c0.2,0,0.3,0.1,0.4,0.1c0.1,0.1,0.2,0.1,0.3,0.2c0.1,0,0.1,0.1,0.2,0.1v1.2h-0.1c-0.1-0.3-0.2-0.6-0.4-0.8
				c-0.2-0.2-0.4-0.3-0.7-0.3c-0.3,0-0.5,0.2-0.6,0.5c-0.1,0.3-0.1,0.8-0.1,1.3V81h1.8v0.6H71.9z"/>
		</g>
	</g>
</g>
<g>
	<g transform="translate(212.484739, 263.17888)">
		<g>
			<path fill="#523E27" d="M77.9,86.7c0,0.1,0,0.2,0,0.3c0,0.1,0.1,0.2,0.1,0.3c0,0.1,0.1,0.2,0.1,0.2c0.1,0.1,0.1,0.1,0.2,0.1v0.2
				h-1.5v-0.9c-0.2,0.2-0.4,0.5-0.7,0.7c-0.3,0.2-0.7,0.3-1.2,0.3c-0.6,0-1.1-0.1-1.5-0.3c-0.4-0.2-0.6-0.5-0.8-0.8
				c-0.2-0.3-0.3-0.7-0.4-1.1c0-0.4-0.1-0.8-0.1-1.1v-2.3c0-0.1,0-0.2,0-0.3c0-0.1,0-0.2-0.1-0.3c0-0.1-0.1-0.1-0.2-0.2
				c-0.1-0.1-0.2-0.1-0.3-0.1v-0.1l1.6-0.5v4.1c0,0.8,0.2,1.4,0.5,1.8c0.4,0.4,0.8,0.6,1.3,0.6c0.3,0,0.5-0.1,0.7-0.2
				c0.2-0.1,0.4-0.3,0.6-0.4c0.2-0.2,0.3-0.4,0.4-0.5c0.1-0.2,0.1-0.3,0.1-0.4v-3.4c0-0.1,0-0.2,0-0.3c0-0.1,0-0.2-0.1-0.3
				c0-0.1-0.1-0.1-0.2-0.2c-0.1-0.1-0.2-0.1-0.3-0.1v-0.1l1.6-0.5V86.7z"/>
		</g>
	</g>
</g>
<g>
	<g transform="translate(218.772752, 263.17888)">
		<g>
			<path fill="#523E27" d="M75.2,81.6v3.9c0,0.3,0,0.5,0,0.8c0,0.2,0,0.4,0.1,0.6c0.1,0.1,0.1,0.3,0.2,0.3c0.1,0.1,0.2,0.1,0.4,0.1
				c0.2,0,0.4-0.1,0.6-0.3c0.2-0.2,0.3-0.5,0.4-0.8H77v1.2c-0.1,0-0.2,0-0.3,0.1c-0.1,0.1-0.2,0.2-0.4,0.3c-0.2,0.1-0.4,0.1-0.7,0.1
				c-0.4,0-0.7-0.1-0.9-0.2c-0.2-0.2-0.4-0.3-0.5-0.6c-0.1-0.3-0.2-0.5-0.2-0.8c0-0.3,0-0.6,0-0.9v-3.6h-0.9V81h0.9v-1.4
				c0-0.2,0-0.3-0.1-0.5c0-0.2-0.2-0.2-0.5-0.3v-0.2l1.6-0.5V81H77v0.6H75.2z"/>
		</g>
	</g>
</g>
<g>
	<g transform="translate(222.192762, 263.17888)">
		<g>
			<path fill="#523E27" d="M81.1,86.7c0,0.1,0,0.2,0,0.3c0,0.1,0.1,0.2,0.1,0.3c0,0.1,0.1,0.2,0.1,0.2c0.1,0.1,0.1,0.1,0.2,0.1v0.2
				h-1.5v-0.9c-0.2,0.2-0.4,0.5-0.7,0.7c-0.3,0.2-0.7,0.3-1.2,0.3c-0.6,0-1.1-0.1-1.5-0.3c-0.4-0.2-0.6-0.5-0.8-0.8
				c-0.2-0.3-0.3-0.7-0.4-1.1c0-0.4-0.1-0.8-0.1-1.1v-2.3c0-0.1,0-0.2,0-0.3c0-0.1,0-0.2-0.1-0.3c0-0.1-0.1-0.1-0.2-0.2
				c-0.1-0.1-0.2-0.1-0.3-0.1v-0.1l1.6-0.5v4.1c0,0.8,0.2,1.4,0.5,1.8c0.4,0.4,0.8,0.6,1.3,0.6c0.3,0,0.5-0.1,0.7-0.2
				c0.2-0.1,0.4-0.3,0.6-0.4c0.2-0.2,0.3-0.4,0.4-0.5c0.1-0.2,0.1-0.3,0.1-0.4v-3.4c0-0.1,0-0.2,0-0.3c0-0.1,0-0.2-0.1-0.3
				c0-0.1-0.1-0.1-0.2-0.2c-0.1-0.1-0.2-0.1-0.3-0.1v-0.1l1.6-0.5V86.7z"/>
		</g>
	</g>
</g>
<g>
	<g transform="translate(228.480775, 263.17888)">
		<g>
			<path fill="#523E27" d="M80.8,82.2c-0.1-0.2-0.3-0.4-0.4-0.4c-0.1-0.1-0.3-0.1-0.5-0.1c-0.1,0-0.3,0-0.4,0.1
				c-0.1,0.1-0.3,0.1-0.4,0.2c-0.1,0.1-0.3,0.2-0.4,0.3c-0.1,0.1-0.2,0.2-0.3,0.3v4.2c0,0.1,0,0.2,0,0.3c0,0.1,0.1,0.2,0.1,0.3
				c0.1,0.1,0.1,0.2,0.2,0.2c0.1,0.1,0.1,0.1,0.2,0.1v0.2h-2.1v-0.2c0.1,0,0.1,0,0.2-0.1c0.1-0.1,0.1-0.1,0.2-0.2
				c0.1-0.1,0.1-0.2,0.1-0.3c0-0.1,0-0.2,0-0.3v-4.5c0-0.2-0.1-0.3-0.1-0.5c-0.1-0.2-0.2-0.3-0.4-0.3v-0.1l1.6-0.5v1
				c0.1-0.1,0.2-0.2,0.3-0.3c0.1-0.1,0.2-0.2,0.4-0.3c0.1-0.1,0.3-0.2,0.4-0.2c0.2-0.1,0.4-0.1,0.6-0.1c0.1,0,0.3,0,0.6,0.1
				c0.2,0.1,0.4,0.1,0.6,0.2L80.8,82.2z"/>
		</g>
	</g>
</g>
<g>
	<g transform="translate(232.524784, 263.17888)">
		<g>
			<path fill="#523E27" d="M79.1,84.5c0,0.4,0.1,0.7,0.3,1.1c0.1,0.3,0.3,0.6,0.5,0.9c0.2,0.3,0.5,0.5,0.8,0.6
				c0.3,0.2,0.7,0.2,1.2,0.2c0.2,0,0.5,0,0.7-0.1c0.3-0.1,0.5-0.2,0.7-0.3c0.2-0.1,0.4-0.3,0.6-0.5c0.2-0.2,0.3-0.4,0.4-0.6h0.1V87
				c-0.1,0-0.1,0-0.2,0.1c-0.1,0-0.2,0.1-0.3,0.1c-0.2,0.1-0.5,0.3-0.9,0.4c-0.4,0.1-0.8,0.2-1.4,0.2c-0.5,0-0.9-0.1-1.4-0.2
				c-0.4-0.1-0.8-0.3-1.1-0.6c-0.3-0.3-0.6-0.7-0.8-1.1c-0.2-0.5-0.3-1-0.3-1.6c0-0.4,0.1-0.8,0.2-1.2c0.1-0.4,0.3-0.8,0.6-1.1
				c0.3-0.3,0.6-0.6,1-0.8c0.4-0.2,0.9-0.3,1.5-0.3c0.5,0,1,0.1,1.4,0.3c0.4,0.2,0.7,0.4,1,0.8c0.3,0.3,0.5,0.7,0.6,1.1
				c0.1,0.4,0.2,0.9,0.2,1.4H79.1z M81.4,81.4c-0.4,0-0.7,0.1-1,0.2c-0.3,0.2-0.5,0.3-0.7,0.6c-0.2,0.2-0.3,0.5-0.5,0.8
				c-0.1,0.3-0.2,0.6-0.2,0.9h4.6c0-0.3-0.1-0.6-0.2-0.9c-0.1-0.3-0.2-0.6-0.4-0.8c-0.2-0.2-0.4-0.4-0.7-0.6
				C82.1,81.5,81.8,81.4,81.4,81.4z"/>
		</g>
	</g>
</g>
</svg>
